  0
SECTION
  2
HEADER
  9
$ACADVER
  1
AC2.10
  0
ENDSEC
  0
SECTION
  2
TABLES
  0
TABLE
  2
LAYER
 70
     8
  0
LAYER
  2
0
 62
     7
 70
0
  6
CONTINUOUS
  0
LAYER
  2
1
 62
     1
 70
0
  6
CONTINUOUS
  0
LAYER
  2
2
 62
     2
 70
0
  6
CONTINUOUS
  0
LAYER
  2
3
 62
     3
 70
0
  6
CONTINUOUS
  0
LAYER
  2
4
 62
     4
 70
0
  6
CONTINUOUS
  0
LAYER
  2
5
 62
     5
 70
0
  6
CONTINUOUS
  0
LAYER
  2
6
 62
     6
 70
0
  6
CONTINUOUS
  0
LAYER
  2
7
 62
     7
 70
0
  6
CONTINUOUS
  0
ENDTAB
  0
TABLE
  2
STYLE
 70
     1
  0
STYLE
 70
     0
  2
STANDARD
  3
TXT
 40
0.00
 41
1.00
 42
1.00
 50
0.00
 71
     0
  0
ENDTAB
  0
ENDSEC
  0
SECTION
  2
BLOCKS
  0
BLOCK
  8
0
  2
EPAD
 70
0
 10
0.0
 20
0.0
  0
POLYLINE
  8
0
 66
1
 70
1
 40
0.5
 41
0.5
  0
VERTEX
  8
0
 10
-0.25
 20
0.0
 42
1.0
  0
VERTEX
  8
0
 10
0.25
 20
0.0
 42
1.0
  0
SEQEND
  8
0
  0
ENDBLK
  8
0
  0
BLOCK
  8
0
  2
RPAD
 70
0
 10
0.0
 20
0.0
  0
TRACE
  8
0
 10
-0.5
 20
-0.5
 11
-0.5
 21
0.5
 12
0.5
 22
-0.5
 13
0.5
 23
0.5
  0
ENDBLK
  8
0
  0
ENDSEC
0
SECTION
2
ENTITIES
0
POLYLINE
8
0
66
1
40
0.025000
41
0.025000
0
VERTEX
8
0
10
0.965000
20
-1.461000
0
VERTEX
8
0
10
1.088000
20
-1.461000
0
VERTEX
8
0
10
1.162000
20
-1.388000
0
VERTEX
8
0
10
1.162000
20
-0.979000
0
VERTEX
8
0
10
1.138000
20
-0.955000
0
SEQEND
8
0
0
POLYLINE
8
0
66
1
40
0.025000
41
0.025000
0
VERTEX
8
0
10
0.504000
20
0.538000
0
VERTEX
8
0
10
0.404000
20
0.638000
0
VERTEX
8
0
10
-1.440000
20
0.638000
0
VERTEX
8
0
10
-1.441000
20
0.639000
0
SEQEND
8
0
0
POLYLINE
8
0
66
1
40
0.025000
41
0.025000
0
VERTEX
8
0
10
-1.121000
20
0.069000
0
VERTEX
8
0
10
-0.384000
20
0.069000
0
VERTEX
8
0
10
-0.229000
20
0.224000
0
VERTEX
8
0
10
-0.229000
20
0.277000
0
VERTEX
8
0
10
-0.233000
20
0.308000
0
SEQEND
8
0
0
POLYLINE
8
0
66
1
40
0.025000
41
0.025000
0
VERTEX
8
0
10
-1.028000
20
0.002000
0
VERTEX
8
0
10
-0.338000
20
0.002000
0
VERTEX
8
0
10
-0.122000
20
0.218000
0
VERTEX
8
0
10
-0.122000
20
0.278000
0
VERTEX
8
0
10
-0.128000
20
0.308000
0
SEQEND
8
0
0
POLYLINE
8
0
66
1
40
0.025000
41
0.025000
0
VERTEX
8
0
10
1.030000
20
-0.557000
0
VERTEX
8
0
10
0.624000
20
-0.557000
0
VERTEX
8
0
10
0.500000
20
-0.433000
0
SEQEND
8
0
0
POLYLINE
8
0
66
1
40
0.025000
41
0.025000
0
VERTEX
8
0
10
-0.900000
20
-0.064000
0
VERTEX
8
0
10
-0.885000
20
-0.049000
0
VERTEX
8
0
10
-0.248000
20
-0.049000
0
VERTEX
8
0
10
-0.032000
20
0.166000
0
VERTEX
8
0
10
-0.032000
20
0.299000
0
VERTEX
8
0
10
-0.026000
20
0.305000
0
SEQEND
8
0
0
POLYLINE
8
0
66
1
40
0.025000
41
0.025000
0
VERTEX
8
0
10
-0.335000
20
0.304000
0
VERTEX
8
0
10
-0.335000
20
0.362000
0
VERTEX
8
0
10
-0.293000
20
0.404000
0
VERTEX
8
0
10
-0.008000
20
0.404000
0
VERTEX
8
0
10
0.067000
20
0.328000
0
VERTEX
8
0
10
0.456000
20
0.328000
0
VERTEX
8
0
10
0.602000
20
0.182000
0
VERTEX
8
0
10
0.810000
20
0.182000
0
VERTEX
8
0
10
1.070000
20
-0.077000
0
SEQEND
8
0
0
POLYLINE
8
0
66
1
40
0.025000
41
0.025000
0
VERTEX
8
0
10
0.756000
20
-0.067000
0
VERTEX
8
0
10
0.288000
20
-0.067000
0
VERTEX
8
0
10
0.270000
20
-0.049000
0
SEQEND
8
0
0
POLYLINE
8
0
66
1
40
0.025000
41
0.025000
0
VERTEX
8
0
10
0.867000
20
-0.065000
0
VERTEX
8
0
10
0.759000
20
0.042000
0
VERTEX
8
0
10
0.262000
20
0.042000
0
SEQEND
8
0
0
POLYLINE
8
0
66
1
40
0.025000
41
0.025000
0
VERTEX
8
0
10
0.961000
20
-0.094000
0
VERTEX
8
0
10
0.961000
20
-0.054000
0
VERTEX
8
0
10
0.785000
20
0.122000
0
VERTEX
8
0
10
0.303000
20
0.122000
0
VERTEX
8
0
10
0.275000
20
0.149000
0
SEQEND
8
0
0
POLYLINE
8
0
66
1
40
0.025000
41
0.025000
0
VERTEX
8
0
10
-0.343000
20
-1.534000
0
VERTEX
8
0
10
-0.232000
20
-1.645000
0
VERTEX
8
0
10
-0.232000
20
-1.988000
0
VERTEX
8
0
10
-0.232000
20
-2.019000
0
VERTEX
8
0
10
-0.164000
20
-2.087000
0
SEQEND
8
0
0
POLYLINE
8
0
66
1
40
0.025000
41
0.025000
0
VERTEX
8
0
10
0.310000
20
-1.717000
0
VERTEX
8
0
10
0.310000
20
-1.553000
0
VERTEX
8
0
10
0.255000
20
-1.498000
0
VERTEX
8
0
10
-0.151000
20
-1.498000
0
VERTEX
8
0
10
-0.402000
20
-1.247000
0
VERTEX
8
0
10
-0.772000
20
-1.247000
0
VERTEX
8
0
10
-0.828000
20
-1.192000
0
VERTEX
8
0
10
-0.828000
20
-0.982000
0
VERTEX
8
0
10
-0.923000
20
-0.886000
0
SEQEND
8
0
0
POLYLINE
8
0
66
1
40
0.025000
41
0.025000
0
VERTEX
8
0
10
1.230000
20
-1.704000
0
VERTEX
8
0
10
0.579000
20
-1.704000
0
VERTEX
8
0
10
0.286000
20
-1.411000
0
VERTEX
8
0
10
-0.108000
20
-1.411000
0
VERTEX
8
0
10
-0.263000
20
-1.257000
0
VERTEX
8
0
10
-0.263000
20
-1.152000
0
VERTEX
8
0
10
-0.312000
20
-1.102000
0
SEQEND
8
0
0
POLYLINE
8
0
66
1
40
0.025000
41
0.025000
0
VERTEX
8
0
10
-0.343000
20
-0.960000
0
VERTEX
8
0
10
-0.180000
20
-1.124000
0
VERTEX
8
0
10
0.946000
20
-1.124000
0
SEQEND
8
0
0
POLYLINE
8
0
66
1
40
0.025000
41
0.025000
0
VERTEX
8
0
10
-0.451000
20
-1.111000
0
VERTEX
8
0
10
-0.451000
20
-0.850000
0
VERTEX
8
0
10
-0.406000
20
-0.805000
0
VERTEX
8
0
10
-0.048000
20
-0.805000
0
VERTEX
8
0
10
-0.007000
20
-0.846000
0
SEQEND
8
0
0
POLYLINE
8
0
66
1
40
0.025000
41
0.025000
0
VERTEX
8
0
10
0.776000
20
-1.034000
0
VERTEX
8
0
10
0.677000
20
-1.034000
0
VERTEX
8
0
10
0.570000
20
-0.927000
0
VERTEX
8
0
10
-0.248000
20
-0.927000
0
VERTEX
8
0
10
-0.303000
20
-0.872000
0
VERTEX
8
0
10
-0.311000
20
-0.872000
0
SEQEND
8
0
0
POLYLINE
8
0
66
1
40
0.025000
41
0.025000
0
VERTEX
8
0
10
-1.200000
20
-1.646000
0
VERTEX
8
0
10
-1.079000
20
-1.526000
0
VERTEX
8
0
10
-0.788000
20
-1.526000
0
VERTEX
8
0
10
-0.743000
20
-1.534000
0
SEQEND
8
0
0
POLYLINE
8
0
66
1
40
0.025000
41
0.025000
0
VERTEX
8
0
10
-0.388000
20
-0.360000
0
VERTEX
8
0
10
-0.177000
20
-0.360000
0
VERTEX
8
0
10
-0.033000
20
-0.217000
0
VERTEX
8
0
10
0.528000
20
-0.217000
0
VERTEX
8
0
10
0.676000
20
-0.364000
0
VERTEX
8
0
10
1.000000
20
-0.364000
0
VERTEX
8
0
10
1.038000
20
-0.359000
0
VERTEX
8
0
10
1.038000
20
-0.402000
0
SEQEND
8
0
0
POLYLINE
8
0
66
1
40
0.025000
41
0.025000
0
VERTEX
8
0
10
-0.788000
20
-0.360000
0
VERTEX
8
0
10
-0.874000
20
-0.274000
0
VERTEX
8
0
10
-1.073000
20
-0.274000
0
VERTEX
8
0
10
-1.125000
20
-0.222000
0
VERTEX
8
0
10
-1.125000
20
-0.054000
0
VERTEX
8
0
10
-1.292000
20
0.111000
0
VERTEX
8
0
10
-1.292000
20
0.206000
0
VERTEX
8
0
10
-1.356000
20
0.271000
0
SEQEND
8
0
0
POLYLINE
8
0
66
1
40
0.025000
41
0.025000
0
VERTEX
8
0
10
-1.268000
20
-0.439000
0
VERTEX
8
0
10
-1.056000
20
-0.570000
0
VERTEX
8
0
10
-0.915000
20
-0.570000
0
VERTEX
8
0
10
-0.860000
20
-0.625000
0
VERTEX
8
0
10
-0.593000
20
-0.625000
0
VERTEX
8
0
10
-0.558000
20
-0.629000
0
SEQEND
8
0
0
POLYLINE
8
0
66
1
40
0.025000
41
0.025000
0
VERTEX
8
0
10
-1.223000
20
-0.341000
0
VERTEX
8
0
10
-0.915000
20
-0.341000
0
VERTEX
8
0
10
-0.807000
20
-0.449000
0
VERTEX
8
0
10
-0.511000
20
-0.449000
0
VERTEX
8
0
10
-0.462000
20
-0.499000
0
SEQEND
8
0
0
POLYLINE
8
0
66
1
40
0.025000
41
0.025000
0
VERTEX
8
0
10
0.435000
20
-1.697000
0
VERTEX
8
0
10
0.435000
20
-1.771000
0
VERTEX
8
0
10
0.353000
20
-1.853000
0
VERTEX
8
0
10
0.114000
20
-1.853000
0
VERTEX
8
0
10
-0.016000
20
-1.714000
0
SEQEND
8
0
0
INSERT
8
0
2
EPAD
10
-1.441000
20
0.639000
41
0.070000
42
0.070000
0
CIRCLE
8
0
10
-1.441000
20
0.639000
40
0.025000
0
INSERT
8
0
2
EPAD
10
-1.121000
20
0.069000
41
0.060000
42
0.060000
0
CIRCLE
8
0
10
-1.121000
20
0.069000
40
0.025000
0
INSERT
8
0
2
EPAD
10
-0.233000
20
0.308000
41
0.060000
42
0.060000
0
CIRCLE
8
0
10
-0.233000
20
0.308000
40
0.025000
0
INSERT
8
0
2
EPAD
10
-1.028000
20
0.002000
41
0.060000
42
0.060000
0
CIRCLE
8
0
10
-1.028000
20
0.002000
40
0.025000
0
INSERT
8
0
2
EPAD
10
-0.128000
20
0.308000
41
0.060000
42
0.060000
0
CIRCLE
8
0
10
-0.128000
20
0.308000
40
0.025000
0
INSERT
8
0
2
EPAD
10
1.030000
20
-0.557000
41
0.060000
42
0.060000
0
CIRCLE
8
0
10
1.030000
20
-0.557000
40
0.025000
0
INSERT
8
0
2
EPAD
10
0.500000
20
-0.433000
41
0.060000
42
0.060000
0
CIRCLE
8
0
10
0.500000
20
-0.433000
40
0.025000
0
INSERT
8
0
2
EPAD
10
-0.900000
20
-0.064000
41
0.060000
42
0.060000
0
CIRCLE
8
0
10
-0.900000
20
-0.064000
40
0.025000
0
INSERT
8
0
2
EPAD
10
-0.026000
20
0.305000
41
0.060000
42
0.060000
0
CIRCLE
8
0
10
-0.026000
20
0.305000
40
0.025000
0
INSERT
8
0
2
EPAD
10
-0.335000
20
0.304000
41
0.060000
42
0.060000
0
CIRCLE
8
0
10
-0.335000
20
0.304000
40
0.025000
0
INSERT
8
0
2
EPAD
10
1.070000
20
-0.077000
41
0.060000
42
0.060000
0
CIRCLE
8
0
10
1.070000
20
-0.077000
40
0.025000
0
INSERT
8
0
2
EPAD
10
0.756000
20
-0.067000
41
0.060000
42
0.060000
0
CIRCLE
8
0
10
0.756000
20
-0.067000
40
0.025000
0
INSERT
8
0
2
EPAD
10
0.270000
20
-0.049000
41
0.060000
42
0.060000
0
CIRCLE
8
0
10
0.270000
20
-0.049000
40
0.025000
0
INSERT
8
0
2
EPAD
10
0.867000
20
-0.065000
41
0.060000
42
0.060000
0
CIRCLE
8
0
10
0.867000
20
-0.065000
40
0.025000
0
INSERT
8
0
2
EPAD
10
0.262000
20
0.042000
41
0.060000
42
0.060000
0
CIRCLE
8
0
10
0.262000
20
0.042000
40
0.025000
0
INSERT
8
0
2
EPAD
10
0.961000
20
-0.094000
41
0.060000
42
0.060000
0
CIRCLE
8
0
10
0.961000
20
-0.094000
40
0.025000
0
INSERT
8
0
2
EPAD
10
0.275000
20
0.149000
41
0.060000
42
0.060000
0
CIRCLE
8
0
10
0.275000
20
0.149000
40
0.025000
0
INSERT
8
0
2
EPAD
10
-0.164000
20
-2.087000
41
0.060000
42
0.060000
0
CIRCLE
8
0
10
-0.164000
20
-2.087000
40
0.025000
0
INSERT
8
0
2
EPAD
10
0.310000
20
-1.717000
41
0.060000
42
0.060000
0
CIRCLE
8
0
10
0.310000
20
-1.717000
40
0.025000
0
INSERT
8
0
2
EPAD
10
-0.923000
20
-0.886000
41
0.060000
42
0.060000
0
CIRCLE
8
0
10
-0.923000
20
-0.886000
40
0.025000
0
INSERT
8
0
2
EPAD
10
1.230000
20
-1.704000
41
0.060000
42
0.060000
0
CIRCLE
8
0
10
1.230000
20
-1.704000
40
0.025000
0
INSERT
8
0
2
EPAD
10
-0.312000
20
-1.102000
41
0.060000
42
0.060000
0
CIRCLE
8
0
10
-0.312000
20
-1.102000
40
0.025000
0
INSERT
8
0
2
EPAD
10
-0.343000
20
-0.960000
41
0.060000
42
0.060000
0
CIRCLE
8
0
10
-0.343000
20
-0.960000
40
0.025000
0
INSERT
8
0
2
EPAD
10
0.946000
20
-1.124000
41
0.060000
42
0.060000
0
CIRCLE
8
0
10
0.946000
20
-1.124000
40
0.025000
0
INSERT
8
0
2
EPAD
10
-0.007000
20
-0.846000
41
0.060000
42
0.060000
0
CIRCLE
8
0
10
-0.007000
20
-0.846000
40
0.025000
0
INSERT
8
0
2
EPAD
10
1.038000
20
-0.402000
41
0.060000
42
0.060000
0
CIRCLE
8
0
10
1.038000
20
-0.402000
40
0.025000
0
INSERT
8
0
2
EPAD
10
0.776000
20
-1.034000
41
0.060000
42
0.060000
0
CIRCLE
8
0
10
0.776000
20
-1.034000
40
0.025000
0
INSERT
8
0
2
EPAD
10
-0.311000
20
-0.872000
41
0.060000
42
0.060000
0
CIRCLE
8
0
10
-0.311000
20
-0.872000
40
0.025000
0
INSERT
8
0
2
EPAD
10
-1.200000
20
-1.646000
41
0.060000
42
0.060000
0
CIRCLE
8
0
10
-1.200000
20
-1.646000
40
0.025000
0
INSERT
8
0
2
EPAD
10
-1.356000
20
0.271000
41
0.060000
42
0.060000
0
CIRCLE
8
0
10
-1.356000
20
0.271000
40
0.025000
0
INSERT
8
0
2
EPAD
10
-1.268000
20
-0.439000
41
0.060000
42
0.060000
0
CIRCLE
8
0
10
-1.268000
20
-0.439000
40
0.025000
0
INSERT
8
0
2
EPAD
10
-1.223000
20
-0.341000
41
0.060000
42
0.060000
0
CIRCLE
8
0
10
-1.223000
20
-0.341000
40
0.025000
0
INSERT
8
0
2
EPAD
10
0.435000
20
-1.697000
41
0.060000
42
0.060000
0
CIRCLE
8
0
10
0.435000
20
-1.697000
40
0.025000
0
INSERT
8
0
2
EPAD
10
-0.016000
20
-1.714000
41
0.060000
42
0.060000
0
CIRCLE
8
0
10
-0.016000
20
-1.714000
40
0.025000
0
INSERT
8
0
2
EPAD
10
-1.803000
20
-2.061000
41
0.250000
42
0.250000
0
CIRCLE
8
0
10
-1.803000
20
-2.061000
40
0.030000
0
INSERT
8
0
2
EPAD
10
-0.406000
20
-1.943000
41
0.150000
42
0.150000
0
CIRCLE
8
0
10
-0.406000
20
-1.943000
40
0.030000
0
INSERT
8
0
2
EPAD
10
-1.391000
20
-1.943000
41
0.150000
42
0.150000
0
CIRCLE
8
0
10
-1.391000
20
-1.943000
40
0.030000
0
INSERT
8
0
2
RPAD
10
-1.030000
20
-0.739000
41
0.050000
42
0.050000
50
0.000000
0
CIRCLE
8
0
10
-1.030000
20
-0.739000
40
0.030000
0
INSERT
8
0
2
EPAD
10
-0.930000
20
-0.739000
41
0.050000
42
0.050000
0
CIRCLE
8
0
10
-0.930000
20
-0.739000
40
0.030000
0
INSERT
8
0
2
EPAD
10
-0.830000
20
-0.739000
41
0.050000
42
0.050000
0
CIRCLE
8
0
10
-0.830000
20
-0.739000
40
0.030000
0
INSERT
8
0
2
EPAD
10
-0.730000
20
-0.739000
41
0.050000
42
0.050000
0
CIRCLE
8
0
10
-0.730000
20
-0.739000
40
0.030000
0
INSERT
8
0
2
EPAD
10
-0.630000
20
-0.739000
41
0.050000
42
0.050000
0
CIRCLE
8
0
10
-0.630000
20
-0.739000
40
0.030000
0
INSERT
8
0
2
EPAD
10
-0.530000
20
-0.739000
41
0.050000
42
0.050000
0
CIRCLE
8
0
10
-0.530000
20
-0.739000
40
0.030000
0
INSERT
8
0
2
EPAD
10
-0.430000
20
-0.739000
41
0.050000
42
0.050000
0
CIRCLE
8
0
10
-0.430000
20
-0.739000
40
0.030000
0
INSERT
8
0
2
EPAD
10
-0.330000
20
-0.739000
41
0.050000
42
0.050000
0
CIRCLE
8
0
10
-0.330000
20
-0.739000
40
0.030000
0
INSERT
8
0
2
EPAD
10
-0.230000
20
-0.739000
41
0.050000
42
0.050000
0
CIRCLE
8
0
10
-0.230000
20
-0.739000
40
0.030000
0
INSERT
8
0
2
EPAD
10
-0.130000
20
-0.739000
41
0.050000
42
0.050000
0
CIRCLE
8
0
10
-0.130000
20
-0.739000
40
0.030000
0
INSERT
8
0
2
EPAD
10
-0.030000
20
-0.739000
41
0.050000
42
0.050000
0
CIRCLE
8
0
10
-0.030000
20
-0.739000
40
0.030000
0
INSERT
8
0
2
EPAD
10
0.069000
20
-0.739000
41
0.050000
42
0.050000
0
CIRCLE
8
0
10
0.069000
20
-0.739000
40
0.030000
0
INSERT
8
0
2
EPAD
10
0.169000
20
-0.739000
41
0.050000
42
0.050000
0
CIRCLE
8
0
10
0.169000
20
-0.739000
40
0.030000
0
INSERT
8
0
2
EPAD
10
0.269000
20
-0.739000
41
0.050000
42
0.050000
0
CIRCLE
8
0
10
0.269000
20
-0.739000
40
0.030000
0
INSERT
8
0
2
EPAD
10
0.369000
20
-0.739000
41
0.050000
42
0.050000
0
CIRCLE
8
0
10
0.369000
20
-0.739000
40
0.030000
0
INSERT
8
0
2
EPAD
10
0.469000
20
-0.739000
41
0.050000
42
0.050000
0
CIRCLE
8
0
10
0.469000
20
-0.739000
40
0.030000
0
INSERT
8
0
2
EPAD
10
0.569000
20
-0.739000
41
0.050000
42
0.050000
0
CIRCLE
8
0
10
0.569000
20
-0.739000
40
0.030000
0
INSERT
8
0
2
EPAD
10
0.669000
20
-0.739000
41
0.050000
42
0.050000
0
CIRCLE
8
0
10
0.669000
20
-0.739000
40
0.030000
0
INSERT
8
0
2
EPAD
10
0.769000
20
-0.739000
41
0.050000
42
0.050000
0
CIRCLE
8
0
10
0.769000
20
-0.739000
40
0.030000
0
INSERT
8
0
2
EPAD
10
0.869000
20
-0.739000
41
0.050000
42
0.050000
0
CIRCLE
8
0
10
0.869000
20
-0.739000
40
0.030000
0
INSERT
8
0
2
EPAD
10
0.869000
20
-0.139000
41
0.050000
42
0.050000
0
CIRCLE
8
0
10
0.869000
20
-0.139000
40
0.030000
0
INSERT
8
0
2
EPAD
10
0.769000
20
-0.139000
41
0.050000
42
0.050000
0
CIRCLE
8
0
10
0.769000
20
-0.139000
40
0.030000
0
INSERT
8
0
2
EPAD
10
0.669000
20
-0.139000
41
0.050000
42
0.050000
0
CIRCLE
8
0
10
0.669000
20
-0.139000
40
0.030000
0
INSERT
8
0
2
EPAD
10
0.569000
20
-0.139000
41
0.050000
42
0.050000
0
CIRCLE
8
0
10
0.569000
20
-0.139000
40
0.030000
0
INSERT
8
0
2
EPAD
10
0.469000
20
-0.139000
41
0.050000
42
0.050000
0
CIRCLE
8
0
10
0.469000
20
-0.139000
40
0.030000
0
INSERT
8
0
2
EPAD
10
0.369000
20
-0.139000
41
0.050000
42
0.050000
0
CIRCLE
8
0
10
0.369000
20
-0.139000
40
0.030000
0
INSERT
8
0
2
EPAD
10
0.269000
20
-0.139000
41
0.050000
42
0.050000
0
CIRCLE
8
0
10
0.269000
20
-0.139000
40
0.030000
0
INSERT
8
0
2
EPAD
10
0.169000
20
-0.139000
41
0.050000
42
0.050000
0
CIRCLE
8
0
10
0.169000
20
-0.139000
40
0.030000
0
INSERT
8
0
2
EPAD
10
0.069000
20
-0.139000
41
0.050000
42
0.050000
0
CIRCLE
8
0
10
0.069000
20
-0.139000
40
0.030000
0
INSERT
8
0
2
EPAD
10
-0.030000
20
-0.139000
41
0.050000
42
0.050000
0
CIRCLE
8
0
10
-0.030000
20
-0.139000
40
0.030000
0
INSERT
8
0
2
EPAD
10
-0.130000
20
-0.139000
41
0.050000
42
0.050000
0
CIRCLE
8
0
10
-0.130000
20
-0.139000
40
0.030000
0
INSERT
8
0
2
EPAD
10
-0.230000
20
-0.139000
41
0.050000
42
0.050000
0
CIRCLE
8
0
10
-0.230000
20
-0.139000
40
0.030000
0
INSERT
8
0
2
EPAD
10
-0.330000
20
-0.139000
41
0.050000
42
0.050000
0
CIRCLE
8
0
10
-0.330000
20
-0.139000
40
0.030000
0
INSERT
8
0
2
EPAD
10
-0.430000
20
-0.139000
41
0.050000
42
0.050000
0
CIRCLE
8
0
10
-0.430000
20
-0.139000
40
0.030000
0
INSERT
8
0
2
EPAD
10
-0.530000
20
-0.139000
41
0.050000
42
0.050000
0
CIRCLE
8
0
10
-0.530000
20
-0.139000
40
0.030000
0
INSERT
8
0
2
EPAD
10
-0.630000
20
-0.139000
41
0.050000
42
0.050000
0
CIRCLE
8
0
10
-0.630000
20
-0.139000
40
0.030000
0
INSERT
8
0
2
EPAD
10
-0.730000
20
-0.139000
41
0.050000
42
0.050000
0
CIRCLE
8
0
10
-0.730000
20
-0.139000
40
0.030000
0
INSERT
8
0
2
EPAD
10
-0.830000
20
-0.139000
41
0.050000
42
0.050000
0
CIRCLE
8
0
10
-0.830000
20
-0.139000
40
0.030000
0
INSERT
8
0
2
EPAD
10
-0.930000
20
-0.139000
41
0.050000
42
0.050000
0
CIRCLE
8
0
10
-0.930000
20
-0.139000
40
0.030000
0
INSERT
8
0
2
EPAD
10
-1.030000
20
-0.139000
41
0.050000
42
0.050000
0
CIRCLE
8
0
10
-1.030000
20
-0.139000
40
0.030000
0
INSERT
8
0
2
EPAD
10
-1.727000
20
-0.872000
41
0.120000
42
0.120000
0
CIRCLE
8
0
10
-1.727000
20
-0.872000
40
0.030000
0
INSERT
8
0
2
EPAD
10
-1.727000
20
-1.072000
41
0.120000
42
0.120000
0
CIRCLE
8
0
10
-1.727000
20
-1.072000
40
0.030000
0
INSERT
8
0
2
EPAD
10
-1.560000
20
-1.363000
41
0.100000
42
0.100000
0
CIRCLE
8
0
10
-1.560000
20
-1.363000
40
0.025000
0
INSERT
8
0
2
EPAD
10
-1.760000
20
-1.563000
41
0.100000
42
0.100000
0
CIRCLE
8
0
10
-1.760000
20
-1.563000
40
0.025000
0
INSERT
8
0
2
EPAD
10
-1.760000
20
-1.363000
41
0.100000
42
0.100000
0
CIRCLE
8
0
10
-1.760000
20
-1.363000
40
0.025000
0
INSERT
8
0
2
EPAD
10
-1.560000
20
-1.563000
41
0.100000
42
0.100000
0
CIRCLE
8
0
10
-1.560000
20
-1.563000
40
0.025000
0
INSERT
8
0
2
EPAD
10
-1.227000
20
-1.315000
41
0.100000
42
0.100000
0
CIRCLE
8
0
10
-1.227000
20
-1.315000
40
0.025000
0
INSERT
8
0
2
EPAD
10
-1.227000
20
-1.515000
41
0.100000
42
0.100000
0
CIRCLE
8
0
10
-1.227000
20
-1.515000
40
0.025000
0
INSERT
8
0
2
EPAD
10
-0.903000
20
-1.224000
41
0.070000
42
0.070000
0
CIRCLE
8
0
10
-0.903000
20
-1.224000
40
0.025000
0
INSERT
8
0
2
EPAD
10
-0.903000
20
-1.624000
41
0.070000
42
0.070000
0
CIRCLE
8
0
10
-0.903000
20
-1.624000
40
0.025000
0
INSERT
8
0
2
RPAD
10
-1.002000
20
-2.069000
41
0.080000
42
0.080000
50
0.000000
0
CIRCLE
8
0
10
-1.002000
20
-2.069000
40
0.025000
0
INSERT
8
0
2
RPAD
10
-0.902000
20
-2.069000
41
0.080000
42
0.080000
50
0.000000
0
CIRCLE
8
0
10
-0.902000
20
-2.069000
40
0.025000
0
INSERT
8
0
2
RPAD
10
-0.802000
20
-2.069000
41
0.080000
42
0.080000
50
0.000000
0
CIRCLE
8
0
10
-0.802000
20
-2.069000
40
0.025000
0
INSERT
8
0
2
EPAD
10
-0.343000
20
-1.534000
41
0.090000
42
0.090000
0
CIRCLE
8
0
10
-0.343000
20
-1.534000
40
0.025000
0
INSERT
8
0
2
EPAD
10
-0.743000
20
-1.534000
41
0.090000
42
0.090000
0
CIRCLE
8
0
10
-0.743000
20
-1.534000
40
0.025000
0
INSERT
8
0
2
EPAD
10
-0.501000
20
-1.329000
41
0.080000
42
0.080000
0
CIRCLE
8
0
10
-0.501000
20
-1.329000
40
0.025000
0
INSERT
8
0
2
EPAD
10
-0.601000
20
-1.329000
41
0.080000
42
0.080000
0
CIRCLE
8
0
10
-0.601000
20
-1.329000
40
0.025000
0
INSERT
8
0
2
EPAD
10
-0.451000
20
-1.111000
41
0.070000
42
0.070000
0
CIRCLE
8
0
10
-0.451000
20
-1.111000
40
0.025000
0
INSERT
8
0
2
EPAD
10
-0.651000
20
-1.111000
41
0.070000
42
0.070000
0
CIRCLE
8
0
10
-0.651000
20
-1.111000
40
0.025000
0
INSERT
8
0
2
EPAD
10
-0.006000
20
-1.970000
41
0.120000
42
0.120000
0
CIRCLE
8
0
10
-0.006000
20
-1.970000
40
0.030000
0
INSERT
8
0
2
EPAD
10
0.193000
20
-1.970000
41
0.120000
42
0.120000
0
CIRCLE
8
0
10
0.193000
20
-1.970000
40
0.030000
0
INSERT
8
0
2
EPAD
10
0.393000
20
-1.970000
41
0.120000
42
0.120000
0
CIRCLE
8
0
10
0.393000
20
-1.970000
40
0.030000
0
INSERT
8
0
2
EPAD
10
0.593000
20
-1.970000
41
0.120000
42
0.120000
0
CIRCLE
8
0
10
0.593000
20
-1.970000
40
0.030000
0
INSERT
8
0
2
EPAD
10
0.826000
20
-1.970000
41
0.120000
42
0.120000
0
CIRCLE
8
0
10
0.826000
20
-1.970000
40
0.030000
0
INSERT
8
0
2
EPAD
10
1.026000
20
-1.970000
41
0.120000
42
0.120000
0
CIRCLE
8
0
10
1.026000
20
-1.970000
40
0.030000
0
INSERT
8
0
2
EPAD
10
1.226000
20
-1.970000
41
0.120000
42
0.120000
0
CIRCLE
8
0
10
1.226000
20
-1.970000
40
0.030000
0
INSERT
8
0
2
EPAD
10
1.426000
20
-1.970000
41
0.120000
42
0.120000
0
CIRCLE
8
0
10
1.426000
20
-1.970000
40
0.030000
0
INSERT
8
0
2
EPAD
10
-1.750000
20
-0.356000
41
0.120000
42
0.120000
0
CIRCLE
8
0
10
-1.750000
20
-0.356000
40
0.030000
0
INSERT
8
0
2
EPAD
10
-1.750000
20
-0.556000
41
0.120000
42
0.120000
0
CIRCLE
8
0
10
-1.750000
20
-0.556000
40
0.030000
0
INSERT
8
0
2
EPAD
10
-1.744000
20
0.085000
41
0.120000
42
0.120000
0
CIRCLE
8
0
10
-1.744000
20
0.085000
40
0.030000
0
INSERT
8
0
2
EPAD
10
-1.744000
20
-0.114000
41
0.120000
42
0.120000
0
CIRCLE
8
0
10
-1.744000
20
-0.114000
40
0.030000
0
INSERT
8
0
2
EPAD
10
-0.139000
20
-1.031000
41
0.080000
42
0.080000
0
CIRCLE
8
0
10
-0.139000
20
-1.031000
40
0.010000
0
INSERT
8
0
2
EPAD
10
-0.039000
20
-1.031000
41
0.080000
42
0.080000
0
CIRCLE
8
0
10
-0.039000
20
-1.031000
40
0.010000
0
INSERT
8
0
2
EPAD
10
0.060000
20
-1.031000
41
0.080000
42
0.080000
0
CIRCLE
8
0
10
0.060000
20
-1.031000
40
0.010000
0
INSERT
8
0
2
EPAD
10
0.160000
20
-1.031000
41
0.080000
42
0.080000
0
CIRCLE
8
0
10
0.160000
20
-1.031000
40
0.010000
0
INSERT
8
0
2
EPAD
10
0.260000
20
-1.031000
41
0.080000
42
0.080000
0
CIRCLE
8
0
10
0.260000
20
-1.031000
40
0.010000
0
INSERT
8
0
2
EPAD
10
0.360000
20
-1.031000
41
0.080000
42
0.080000
0
CIRCLE
8
0
10
0.360000
20
-1.031000
40
0.010000
0
INSERT
8
0
2
EPAD
10
0.460000
20
-1.031000
41
0.080000
42
0.080000
0
CIRCLE
8
0
10
0.460000
20
-1.031000
40
0.010000
0
INSERT
8
0
2
EPAD
10
0.560000
20
-1.031000
41
0.080000
42
0.080000
0
CIRCLE
8
0
10
0.560000
20
-1.031000
40
0.010000
0
INSERT
8
0
2
EPAD
10
-0.138000
20
-1.225000
41
0.070000
42
0.070000
0
CIRCLE
8
0
10
-0.138000
20
-1.225000
40
0.025000
0
INSERT
8
0
2
EPAD
10
-0.138000
20
-1.625000
41
0.070000
42
0.070000
0
CIRCLE
8
0
10
-0.138000
20
-1.625000
40
0.025000
0
INSERT
8
0
2
EPAD
10
-0.026000
20
-1.225000
41
0.070000
42
0.070000
0
CIRCLE
8
0
10
-0.026000
20
-1.225000
40
0.025000
0
INSERT
8
0
2
EPAD
10
-0.026000
20
-1.625000
41
0.070000
42
0.070000
0
CIRCLE
8
0
10
-0.026000
20
-1.625000
40
0.025000
0
INSERT
8
0
2
EPAD
10
0.091000
20
-1.225000
41
0.070000
42
0.070000
0
CIRCLE
8
0
10
0.091000
20
-1.225000
40
0.025000
0
INSERT
8
0
2
EPAD
10
0.091000
20
-1.625000
41
0.070000
42
0.070000
0
CIRCLE
8
0
10
0.091000
20
-1.625000
40
0.025000
0
INSERT
8
0
2
EPAD
10
0.209000
20
-1.225000
41
0.070000
42
0.070000
0
CIRCLE
8
0
10
0.209000
20
-1.225000
40
0.025000
0
INSERT
8
0
2
EPAD
10
0.209000
20
-1.625000
41
0.070000
42
0.070000
0
CIRCLE
8
0
10
0.209000
20
-1.625000
40
0.025000
0
INSERT
8
0
2
EPAD
10
1.254000
20
0.603000
41
0.070000
42
0.070000
0
CIRCLE
8
0
10
1.254000
20
0.603000
40
0.025000
0
INSERT
8
0
2
EPAD
10
1.254000
20
0.203000
41
0.070000
42
0.070000
0
CIRCLE
8
0
10
1.254000
20
0.203000
40
0.025000
0
INSERT
8
0
2
EPAD
10
1.128000
20
0.603000
41
0.070000
42
0.070000
0
CIRCLE
8
0
10
1.128000
20
0.603000
40
0.025000
0
INSERT
8
0
2
EPAD
10
1.128000
20
0.203000
41
0.070000
42
0.070000
0
CIRCLE
8
0
10
1.128000
20
0.203000
40
0.025000
0
INSERT
8
0
2
EPAD
10
1.019000
20
0.603000
41
0.070000
42
0.070000
0
CIRCLE
8
0
10
1.019000
20
0.603000
40
0.025000
0
INSERT
8
0
2
EPAD
10
1.019000
20
0.203000
41
0.070000
42
0.070000
0
CIRCLE
8
0
10
1.019000
20
0.203000
40
0.025000
0
INSERT
8
0
2
EPAD
10
0.903000
20
0.603000
41
0.070000
42
0.070000
0
CIRCLE
8
0
10
0.903000
20
0.603000
40
0.025000
0
INSERT
8
0
2
EPAD
10
0.903000
20
0.203000
41
0.070000
42
0.070000
0
CIRCLE
8
0
10
0.903000
20
0.203000
40
0.025000
0
INSERT
8
0
2
RPAD
10
1.107000
20
0.866000
41
0.050000
42
0.050000
50
0.000000
0
CIRCLE
8
0
10
1.107000
20
0.866000
40
0.030000
0
INSERT
8
0
2
EPAD
10
1.207000
20
0.866000
41
0.050000
42
0.050000
0
CIRCLE
8
0
10
1.207000
20
0.866000
40
0.030000
0
INSERT
8
0
2
EPAD
10
1.307000
20
0.866000
41
0.050000
42
0.050000
0
CIRCLE
8
0
10
1.307000
20
0.866000
40
0.030000
0
INSERT
8
0
2
EPAD
10
1.307000
20
1.166000
41
0.050000
42
0.050000
0
CIRCLE
8
0
10
1.307000
20
1.166000
40
0.030000
0
INSERT
8
0
2
EPAD
10
1.207000
20
1.166000
41
0.050000
42
0.050000
0
CIRCLE
8
0
10
1.207000
20
1.166000
40
0.030000
0
INSERT
8
0
2
EPAD
10
1.107000
20
1.166000
41
0.050000
42
0.050000
0
CIRCLE
8
0
10
1.107000
20
1.166000
40
0.030000
0
INSERT
8
0
2
RPAD
10
1.307000
20
1.521000
41
0.080000
42
0.080000
50
180.000000
0
CIRCLE
8
0
10
1.307000
20
1.521000
40
0.025000
0
INSERT
8
0
2
RPAD
10
1.207000
20
1.521000
41
0.080000
42
0.080000
50
180.000000
0
CIRCLE
8
0
10
1.207000
20
1.521000
40
0.025000
0
INSERT
8
0
2
RPAD
10
1.107000
20
1.521000
41
0.080000
42
0.080000
50
180.000000
0
CIRCLE
8
0
10
1.107000
20
1.521000
40
0.025000
0
INSERT
8
0
2
EPAD
10
1.004000
20
1.248000
41
0.070000
42
0.070000
0
CIRCLE
8
0
10
1.004000
20
1.248000
40
0.025000
0
INSERT
8
0
2
EPAD
10
1.404000
20
1.248000
41
0.070000
42
0.070000
0
CIRCLE
8
0
10
1.404000
20
1.248000
40
0.025000
0
INSERT
8
0
2
EPAD
10
1.111000
20
1.966000
41
0.120000
42
0.120000
0
CIRCLE
8
0
10
1.111000
20
1.966000
40
0.030000
0
INSERT
8
0
2
EPAD
10
1.311000
20
1.966000
41
0.120000
42
0.120000
0
CIRCLE
8
0
10
1.311000
20
1.966000
40
0.030000
0
INSERT
8
0
2
RPAD
10
0.311000
20
0.849000
41
0.050000
42
0.050000
50
0.000000
0
CIRCLE
8
0
10
0.311000
20
0.849000
40
0.030000
0
INSERT
8
0
2
EPAD
10
0.411000
20
0.849000
41
0.050000
42
0.050000
0
CIRCLE
8
0
10
0.411000
20
0.849000
40
0.030000
0
INSERT
8
0
2
EPAD
10
0.511000
20
0.849000
41
0.050000
42
0.050000
0
CIRCLE
8
0
10
0.511000
20
0.849000
40
0.030000
0
INSERT
8
0
2
EPAD
10
0.511000
20
1.149000
41
0.050000
42
0.050000
0
CIRCLE
8
0
10
0.511000
20
1.149000
40
0.030000
0
INSERT
8
0
2
EPAD
10
0.411000
20
1.149000
41
0.050000
42
0.050000
0
CIRCLE
8
0
10
0.411000
20
1.149000
40
0.030000
0
INSERT
8
0
2
EPAD
10
0.311000
20
1.149000
41
0.050000
42
0.050000
0
CIRCLE
8
0
10
0.311000
20
1.149000
40
0.030000
0
INSERT
8
0
2
RPAD
10
0.522000
20
1.504000
41
0.080000
42
0.080000
50
180.000000
0
CIRCLE
8
0
10
0.522000
20
1.504000
40
0.025000
0
INSERT
8
0
2
RPAD
10
0.422000
20
1.504000
41
0.080000
42
0.080000
50
180.000000
0
CIRCLE
8
0
10
0.422000
20
1.504000
40
0.025000
0
INSERT
8
0
2
RPAD
10
0.322000
20
1.504000
41
0.080000
42
0.080000
50
180.000000
0
CIRCLE
8
0
10
0.322000
20
1.504000
40
0.025000
0
INSERT
8
0
2
EPAD
10
0.366000
20
1.966000
41
0.120000
42
0.120000
0
CIRCLE
8
0
10
0.366000
20
1.966000
40
0.030000
0
INSERT
8
0
2
EPAD
10
0.566000
20
1.966000
41
0.120000
42
0.120000
0
CIRCLE
8
0
10
0.566000
20
1.966000
40
0.030000
0
INSERT
8
0
2
EPAD
10
0.183000
20
1.240000
41
0.070000
42
0.070000
0
CIRCLE
8
0
10
0.183000
20
1.240000
40
0.025000
0
INSERT
8
0
2
EPAD
10
0.583000
20
1.240000
41
0.070000
42
0.070000
0
CIRCLE
8
0
10
0.583000
20
1.240000
40
0.025000
0
INSERT
8
0
2
RPAD
10
-0.433000
20
0.857000
41
0.050000
42
0.050000
50
0.000000
0
CIRCLE
8
0
10
-0.433000
20
0.857000
40
0.030000
0
INSERT
8
0
2
EPAD
10
-0.333000
20
0.857000
41
0.050000
42
0.050000
0
CIRCLE
8
0
10
-0.333000
20
0.857000
40
0.030000
0
INSERT
8
0
2
EPAD
10
-0.233000
20
0.857000
41
0.050000
42
0.050000
0
CIRCLE
8
0
10
-0.233000
20
0.857000
40
0.030000
0
INSERT
8
0
2
EPAD
10
-0.233000
20
1.157000
41
0.050000
42
0.050000
0
CIRCLE
8
0
10
-0.233000
20
1.157000
40
0.030000
0
INSERT
8
0
2
EPAD
10
-0.333000
20
1.157000
41
0.050000
42
0.050000
0
CIRCLE
8
0
10
-0.333000
20
1.157000
40
0.030000
0
INSERT
8
0
2
EPAD
10
-0.433000
20
1.157000
41
0.050000
42
0.050000
0
CIRCLE
8
0
10
-0.433000
20
1.157000
40
0.030000
0
INSERT
8
0
2
RPAD
10
-0.246000
20
1.512000
41
0.080000
42
0.080000
50
180.000000
0
CIRCLE
8
0
10
-0.246000
20
1.512000
40
0.025000
0
INSERT
8
0
2
RPAD
10
-0.346000
20
1.512000
41
0.080000
42
0.080000
50
180.000000
0
CIRCLE
8
0
10
-0.346000
20
1.512000
40
0.025000
0
INSERT
8
0
2
RPAD
10
-0.446000
20
1.512000
41
0.080000
42
0.080000
50
180.000000
0
CIRCLE
8
0
10
-0.446000
20
1.512000
40
0.025000
0
INSERT
8
0
2
EPAD
10
-0.545000
20
1.242000
41
0.070000
42
0.070000
0
CIRCLE
8
0
10
-0.545000
20
1.242000
40
0.025000
0
INSERT
8
0
2
EPAD
10
-0.145000
20
1.242000
41
0.070000
42
0.070000
0
CIRCLE
8
0
10
-0.145000
20
1.242000
40
0.025000
0
INSERT
8
0
2
EPAD
10
-0.436000
20
1.966000
41
0.120000
42
0.120000
0
CIRCLE
8
0
10
-0.436000
20
1.966000
40
0.030000
0
INSERT
8
0
2
EPAD
10
-0.236000
20
1.966000
41
0.120000
42
0.120000
0
CIRCLE
8
0
10
-0.236000
20
1.966000
40
0.030000
0
INSERT
8
0
2
RPAD
10
-1.257000
20
0.857000
41
0.050000
42
0.050000
50
0.000000
0
CIRCLE
8
0
10
-1.257000
20
0.857000
40
0.030000
0
INSERT
8
0
2
EPAD
10
-1.157000
20
0.857000
41
0.050000
42
0.050000
0
CIRCLE
8
0
10
-1.157000
20
0.857000
40
0.030000
0
INSERT
8
0
2
EPAD
10
-1.057000
20
0.857000
41
0.050000
42
0.050000
0
CIRCLE
8
0
10
-1.057000
20
0.857000
40
0.030000
0
INSERT
8
0
2
EPAD
10
-1.057000
20
1.157000
41
0.050000
42
0.050000
0
CIRCLE
8
0
10
-1.057000
20
1.157000
40
0.030000
0
INSERT
8
0
2
EPAD
10
-1.157000
20
1.157000
41
0.050000
42
0.050000
0
CIRCLE
8
0
10
-1.157000
20
1.157000
40
0.030000
0
INSERT
8
0
2
EPAD
10
-1.257000
20
1.157000
41
0.050000
42
0.050000
0
CIRCLE
8
0
10
-1.257000
20
1.157000
40
0.030000
0
INSERT
8
0
2
RPAD
10
-1.068000
20
1.512000
41
0.080000
42
0.080000
50
180.000000
0
CIRCLE
8
0
10
-1.068000
20
1.512000
40
0.025000
0
INSERT
8
0
2
RPAD
10
-1.168000
20
1.512000
41
0.080000
42
0.080000
50
180.000000
0
CIRCLE
8
0
10
-1.168000
20
1.512000
40
0.025000
0
INSERT
8
0
2
RPAD
10
-1.268000
20
1.512000
41
0.080000
42
0.080000
50
180.000000
0
CIRCLE
8
0
10
-1.268000
20
1.512000
40
0.025000
0
INSERT
8
0
2
EPAD
10
-1.263000
20
1.966000
41
0.120000
42
0.120000
0
CIRCLE
8
0
10
-1.263000
20
1.966000
40
0.030000
0
INSERT
8
0
2
EPAD
10
-1.063000
20
1.966000
41
0.120000
42
0.120000
0
CIRCLE
8
0
10
-1.063000
20
1.966000
40
0.030000
0
INSERT
8
0
2
EPAD
10
-1.363000
20
1.249000
41
0.070000
42
0.070000
0
CIRCLE
8
0
10
-1.363000
20
1.249000
40
0.025000
0
INSERT
8
0
2
EPAD
10
-0.963000
20
1.249000
41
0.070000
42
0.070000
0
CIRCLE
8
0
10
-0.963000
20
1.249000
40
0.025000
0
INSERT
8
0
2
EPAD
10
-1.715000
20
1.080000
41
0.120000
42
0.120000
0
CIRCLE
8
0
10
-1.715000
20
1.080000
40
0.030000
0
INSERT
8
0
2
EPAD
10
-1.715000
20
1.280000
41
0.120000
42
0.120000
0
CIRCLE
8
0
10
-1.715000
20
1.280000
40
0.030000
0
INSERT
8
0
2
EPAD
10
0.264000
20
0.491000
41
0.080000
42
0.080000
0
CIRCLE
8
0
10
0.264000
20
0.491000
40
0.010000
0
INSERT
8
0
2
EPAD
10
0.164000
20
0.491000
41
0.080000
42
0.080000
0
CIRCLE
8
0
10
0.164000
20
0.491000
40
0.010000
0
INSERT
8
0
2
EPAD
10
0.064000
20
0.491000
41
0.080000
42
0.080000
0
CIRCLE
8
0
10
0.064000
20
0.491000
40
0.010000
0
INSERT
8
0
2
EPAD
10
-0.035000
20
0.491000
41
0.080000
42
0.080000
0
CIRCLE
8
0
10
-0.035000
20
0.491000
40
0.010000
0
INSERT
8
0
2
EPAD
10
-0.135000
20
0.491000
41
0.080000
42
0.080000
0
CIRCLE
8
0
10
-0.135000
20
0.491000
40
0.010000
0
INSERT
8
0
2
EPAD
10
-0.235000
20
0.491000
41
0.080000
42
0.080000
0
CIRCLE
8
0
10
-0.235000
20
0.491000
40
0.010000
0
INSERT
8
0
2
EPAD
10
-0.335000
20
0.491000
41
0.080000
42
0.080000
0
CIRCLE
8
0
10
-0.335000
20
0.491000
40
0.010000
0
INSERT
8
0
2
EPAD
10
-0.435000
20
0.491000
41
0.080000
42
0.080000
0
CIRCLE
8
0
10
-0.435000
20
0.491000
40
0.010000
0
INSERT
8
0
2
EPAD
10
-0.535000
20
0.491000
41
0.080000
42
0.080000
0
CIRCLE
8
0
10
-0.535000
20
0.491000
40
0.010000
0
INSERT
8
0
2
EPAD
10
-0.635000
20
0.491000
41
0.080000
42
0.080000
0
CIRCLE
8
0
10
-0.635000
20
0.491000
40
0.010000
0
INSERT
8
0
2
EPAD
10
-0.735000
20
0.491000
41
0.080000
42
0.080000
0
CIRCLE
8
0
10
-0.735000
20
0.491000
40
0.010000
0
INSERT
8
0
2
EPAD
10
-0.835000
20
0.491000
41
0.080000
42
0.080000
0
CIRCLE
8
0
10
-0.835000
20
0.491000
40
0.010000
0
INSERT
8
0
2
EPAD
10
-0.935000
20
0.491000
41
0.080000
42
0.080000
0
CIRCLE
8
0
10
-0.935000
20
0.491000
40
0.010000
0
INSERT
8
0
2
EPAD
10
-1.035000
20
0.491000
41
0.080000
42
0.080000
0
CIRCLE
8
0
10
-1.035000
20
0.491000
40
0.010000
0
INSERT
8
0
2
EPAD
10
-1.135000
20
0.491000
41
0.080000
42
0.080000
0
CIRCLE
8
0
10
-1.135000
20
0.491000
40
0.010000
0
INSERT
8
0
2
EPAD
10
-1.235000
20
0.491000
41
0.080000
42
0.080000
0
CIRCLE
8
0
10
-1.235000
20
0.491000
40
0.010000
0
INSERT
8
0
2
EPAD
10
-1.335000
20
0.491000
41
0.080000
42
0.080000
0
CIRCLE
8
0
10
-1.335000
20
0.491000
40
0.010000
0
INSERT
8
0
2
EPAD
10
-1.435000
20
0.491000
41
0.080000
42
0.080000
0
CIRCLE
8
0
10
-1.435000
20
0.491000
40
0.010000
0
INSERT
8
0
2
EPAD
10
-1.535000
20
0.491000
41
0.080000
42
0.080000
0
CIRCLE
8
0
10
-1.535000
20
0.491000
40
0.010000
0
INSERT
8
0
2
EPAD
10
-1.635000
20
0.491000
41
0.080000
42
0.080000
0
CIRCLE
8
0
10
-1.635000
20
0.491000
40
0.010000
0
INSERT
8
0
2
EPAD
10
1.590000
20
-1.904000
41
0.070000
42
0.070000
0
CIRCLE
8
0
10
1.590000
20
-1.904000
40
0.025000
0
INSERT
8
0
2
EPAD
10
1.590000
20
-1.504000
41
0.070000
42
0.070000
0
CIRCLE
8
0
10
1.590000
20
-1.504000
40
0.025000
0
INSERT
8
0
2
RPAD
10
1.357000
20
-1.522000
41
0.080000
42
0.080000
50
180.000000
0
CIRCLE
8
0
10
1.357000
20
-1.522000
40
0.025000
0
INSERT
8
0
2
RPAD
10
1.257000
20
-1.522000
41
0.080000
42
0.080000
50
180.000000
0
CIRCLE
8
0
10
1.257000
20
-1.522000
40
0.025000
0
INSERT
8
0
2
EPAD
10
-1.201000
20
-0.978000
41
0.080000
42
0.080000
0
CIRCLE
8
0
10
-1.201000
20
-0.978000
40
0.010000
0
INSERT
8
0
2
EPAD
10
-1.301000
20
-0.978000
41
0.080000
42
0.080000
0
CIRCLE
8
0
10
-1.301000
20
-0.978000
40
0.010000
0
INSERT
8
0
2
EPAD
10
-1.035000
20
-0.831000
41
0.070000
42
0.070000
0
CIRCLE
8
0
10
-1.035000
20
-0.831000
40
0.025000
0
INSERT
8
0
2
EPAD
10
-1.035000
20
-1.231000
41
0.070000
42
0.070000
0
CIRCLE
8
0
10
-1.035000
20
-1.231000
40
0.025000
0
INSERT
8
0
2
EPAD
10
-1.175000
20
-0.785000
41
0.070000
42
0.070000
0
CIRCLE
8
0
10
-1.175000
20
-0.785000
40
0.025000
0
INSERT
8
0
2
EPAD
10
-1.375000
20
-0.785000
41
0.070000
42
0.070000
0
CIRCLE
8
0
10
-1.375000
20
-0.785000
40
0.025000
0
INSERT
8
0
2
EPAD
10
-0.958000
20
-0.629000
41
0.070000
42
0.070000
0
CIRCLE
8
0
10
-0.958000
20
-0.629000
40
0.025000
0
INSERT
8
0
2
EPAD
10
-0.558000
20
-0.629000
41
0.070000
42
0.070000
0
CIRCLE
8
0
10
-0.558000
20
-0.629000
40
0.025000
0
INSERT
8
0
2
EPAD
10
-0.862000
20
-0.499000
41
0.070000
42
0.070000
0
CIRCLE
8
0
10
-0.862000
20
-0.499000
40
0.025000
0
INSERT
8
0
2
EPAD
10
-0.462000
20
-0.499000
41
0.070000
42
0.070000
0
CIRCLE
8
0
10
-0.462000
20
-0.499000
40
0.025000
0
INSERT
8
0
2
EPAD
10
0.122000
20
-0.568000
41
0.080000
42
0.080000
0
CIRCLE
8
0
10
0.122000
20
-0.568000
40
0.025000
0
INSERT
8
0
2
EPAD
10
0.322000
20
-0.568000
41
0.080000
42
0.080000
0
CIRCLE
8
0
10
0.322000
20
-0.568000
40
0.025000
0
INSERT
8
0
2
EPAD
10
0.123000
20
-0.373000
41
0.070000
42
0.070000
0
CIRCLE
8
0
10
0.123000
20
-0.373000
40
0.025000
0
INSERT
8
0
2
EPAD
10
0.023000
20
-0.373000
41
0.070000
42
0.070000
0
CIRCLE
8
0
10
0.023000
20
-0.373000
40
0.025000
0
INSERT
8
0
2
EPAD
10
0.318000
20
-0.378000
41
0.070000
42
0.070000
0
CIRCLE
8
0
10
0.318000
20
-0.378000
40
0.025000
0
INSERT
8
0
2
EPAD
10
0.418000
20
-0.378000
41
0.070000
42
0.070000
0
CIRCLE
8
0
10
0.418000
20
-0.378000
40
0.025000
0
INSERT
8
0
2
EPAD
10
0.738000
20
-0.955000
41
0.070000
42
0.070000
0
CIRCLE
8
0
10
0.738000
20
-0.955000
40
0.025000
0
INSERT
8
0
2
EPAD
10
1.138000
20
-0.955000
41
0.070000
42
0.070000
0
CIRCLE
8
0
10
1.138000
20
-0.955000
40
0.025000
0
INSERT
8
0
2
EPAD
10
0.965000
20
-1.381000
41
0.060000
42
0.060000
0
CIRCLE
8
0
10
0.965000
20
-1.381000
40
0.025000
0
INSERT
8
0
2
EPAD
10
0.965000
20
-1.461000
41
0.060000
42
0.060000
0
CIRCLE
8
0
10
0.965000
20
-1.461000
40
0.025000
0
INSERT
8
0
2
EPAD
10
0.965000
20
-1.541000
41
0.060000
42
0.060000
0
CIRCLE
8
0
10
0.965000
20
-1.541000
40
0.025000
0
INSERT
8
0
2
EPAD
10
0.456000
20
-1.457000
41
0.080000
42
0.080000
0
CIRCLE
8
0
10
0.456000
20
-1.457000
40
0.010000
0
INSERT
8
0
2
EPAD
10
0.760000
20
-1.457000
41
0.080000
42
0.080000
0
CIRCLE
8
0
10
0.760000
20
-1.457000
40
0.010000
0
INSERT
8
0
2
EPAD
10
0.704000
20
0.538000
41
0.080000
42
0.080000
0
CIRCLE
8
0
10
0.704000
20
0.538000
40
0.025000
0
INSERT
8
0
2
EPAD
10
0.504000
20
0.538000
41
0.080000
42
0.080000
0
CIRCLE
8
0
10
0.504000
20
0.538000
40
0.025000
0
INSERT
8
0
2
EPAD
10
0.604000
20
0.318000
41
0.080000
42
0.080000
0
CIRCLE
8
0
10
0.604000
20
0.318000
40
0.025000
0
INSERT
8
0
2
EPAD
10
-1.383000
20
-0.088000
41
0.060000
42
0.060000
0
CIRCLE
8
0
10
-1.383000
20
-0.088000
40
0.025000
0
INSERT
8
0
2
EPAD
10
-1.303000
20
-0.088000
41
0.060000
42
0.060000
0
CIRCLE
8
0
10
-1.303000
20
-0.088000
40
0.025000
0
INSERT
8
0
2
EPAD
10
-1.223000
20
-0.088000
41
0.060000
42
0.060000
0
CIRCLE
8
0
10
-1.223000
20
-0.088000
40
0.025000
0
INSERT
8
0
2
EPAD
10
-1.351000
20
-0.638000
41
0.070000
42
0.070000
0
CIRCLE
8
0
10
-1.351000
20
-0.638000
40
0.025000
0
INSERT
8
0
2
EPAD
10
-1.351000
20
-0.238000
41
0.070000
42
0.070000
0
CIRCLE
8
0
10
-1.351000
20
-0.238000
40
0.025000
0
INSERT
8
0
2
EPAD
10
1.707000
20
-2.065000
41
0.250000
42
0.250000
0
CIRCLE
8
0
10
1.707000
20
-2.065000
40
0.030000
0
INSERT
8
0
2
EPAD
10
-1.811000
20
2.044000
41
0.250000
42
0.250000
0
CIRCLE
8
0
10
-1.811000
20
2.044000
40
0.030000
0
INSERT
8
0
2
EPAD
10
1.680000
20
2.060000
41
0.250000
42
0.250000
0
CIRCLE
8
0
10
1.680000
20
2.060000
40
0.030000
0
INSERT
8
0
2
EPAD
10
1.168000
20
-0.443000
41
0.080000
42
0.080000
0
CIRCLE
8
0
10
1.168000
20
-0.443000
40
0.010000
0
INSERT
8
0
2
EPAD
10
1.168000
20
-0.543000
41
0.080000
42
0.080000
0
CIRCLE
8
0
10
1.168000
20
-0.543000
40
0.010000
0
INSERT
8
0
2
EPAD
10
1.168000
20
-0.643000
41
0.080000
42
0.080000
0
CIRCLE
8
0
10
1.168000
20
-0.643000
40
0.010000
0
INSERT
8
0
2
EPAD
10
-0.788000
20
-0.360000
41
0.070000
42
0.070000
0
CIRCLE
8
0
10
-0.788000
20
-0.360000
40
0.025000
0
INSERT
8
0
2
EPAD
10
-0.388000
20
-0.360000
41
0.070000
42
0.070000
0
CIRCLE
8
0
10
-0.388000
20
-0.360000
40
0.025000
0
POLYLINE
8
0
66
1
40
0.008000
41
0.008000
0
VERTEX
8
0
10
-1.981000
20
-2.226000
0
VERTEX
8
0
10
1.853000
20
-2.226000
0
VERTEX
8
0
10
1.853000
20
2.222000
0
VERTEX
8
0
10
-1.981000
20
2.222000
0
VERTEX
8
0
10
-1.981000
20
-2.226000
0
SEQEND
8
0
0
POLYLINE
8
0
66
1
40
0.008000
41
0.008000
0
VERTEX
8
0
10
-1.591000
20
-2.187000
0
VERTEX
8
0
10
-0.213000
20
-2.187000
0
VERTEX
8
0
10
-0.213000
20
-1.699000
0
VERTEX
8
0
10
-1.591000
20
-1.699000
0
VERTEX
8
0
10
-1.591000
20
-2.187000
0
SEQEND
8
0
0
POLYLINE
8
0
66
1
40
0.008000
41
0.008000
0
VERTEX
8
0
10
1.334000
20
-1.232000
0
VERTEX
8
0
10
1.807000
20
-1.232000
0
VERTEX
8
0
10
1.807000
20
-0.760000
0
VERTEX
8
0
10
1.334000
20
-0.760000
0
VERTEX
8
0
10
1.334000
20
-1.232000
0
SEQEND
8
0
0
POLYLINE
8
0
66
1
40
0.008000
41
0.008000
0
VERTEX
8
0
10
1.807000
20
-0.937000
0
VERTEX
8
0
10
1.964000
20
-0.937000
0
VERTEX
8
0
10
1.964000
20
-0.898000
0
VERTEX
8
0
10
1.807000
20
-0.898000
0
VERTEX
8
0
10
1.807000
20
-0.937000
0
SEQEND
8
0
0
POLYLINE
8
0
66
1
40
0.008000
41
0.008000
0
VERTEX
8
0
10
1.807000
20
-1.094000
0
VERTEX
8
0
10
1.964000
20
-1.094000
0
VERTEX
8
0
10
1.964000
20
-1.055000
0
VERTEX
8
0
10
1.807000
20
-1.055000
0
VERTEX
8
0
10
1.807000
20
-1.094000
0
SEQEND
8
0
0
TEXT
8
12632256
10
1.276000
20
-1.098000
40
0.048000
41
1.041667
50
90.000000
71
2
1
SP1
0
POLYLINE
8
0
66
1
40
0.008000
41
0.008000
0
VERTEX
8
0
10
1.351000
20
-0.244000
0
VERTEX
8
0
10
1.823000
20
-0.244000
0
VERTEX
8
0
10
1.823000
20
0.227000
0
VERTEX
8
0
10
1.351000
20
0.227000
0
VERTEX
8
0
10
1.351000
20
-0.244000
0
SEQEND
8
0
0
POLYLINE
8
0
66
1
40
0.008000
41
0.008000
0
VERTEX
8
0
10
1.823000
20
0.050000
0
VERTEX
8
0
10
1.981000
20
0.050000
0
VERTEX
8
0
10
1.981000
20
0.089000
0
VERTEX
8
0
10
1.823000
20
0.089000
0
VERTEX
8
0
10
1.823000
20
0.050000
0
SEQEND
8
0
0
POLYLINE
8
0
66
1
40
0.008000
41
0.008000
0
VERTEX
8
0
10
1.823000
20
-0.107000
0
VERTEX
8
0
10
1.981000
20
-0.107000
0
VERTEX
8
0
10
1.981000
20
-0.067000
0
VERTEX
8
0
10
1.823000
20
-0.067000
0
VERTEX
8
0
10
1.823000
20
-0.107000
0
SEQEND
8
0
0
TEXT
8
12632256
10
1.347000
20
-0.115000
40
0.048000
41
1.041667
50
90.000000
71
2
1
SP2
0
POLYLINE
8
0
66
1
40
0.008000
41
0.008000
0
VERTEX
8
0
10
-0.980000
20
-0.439000
0
VERTEX
8
0
10
-0.982000
20
-0.419000
0
VERTEX
8
0
10
-0.988000
20
-0.400000
0
VERTEX
8
0
10
-0.997000
20
-0.383000
0
VERTEX
8
0
10
-1.009000
20
-0.368000
0
VERTEX
8
0
10
-1.024000
20
-0.356000
0
VERTEX
8
0
10
-1.041000
20
-0.347000
0
VERTEX
8
0
10
-1.060000
20
-0.341000
0
VERTEX
8
0
10
-1.080000
20
-0.339000
0
SEQEND
8
0
0
POLYLINE
8
0
66
1
40
0.008000
41
0.008000
0
VERTEX
8
0
10
-0.980000
20
-0.439000
0
VERTEX
8
0
10
-0.982000
20
-0.460000
0
VERTEX
8
0
10
-0.988000
20
-0.479000
0
VERTEX
8
0
10
-0.997000
20
-0.496000
0
VERTEX
8
0
10
-1.009000
20
-0.510000
0
VERTEX
8
0
10
-1.024000
20
-0.522000
0
VERTEX
8
0
10
-1.041000
20
-0.531000
0
VERTEX
8
0
10
-1.060000
20
-0.537000
0
VERTEX
8
0
10
-1.080000
20
-0.539000
0
SEQEND
8
0
0
POLYLINE
8
0
66
1
40
0.008000
41
0.008000
0
VERTEX
8
0
10
-1.080000
20
-0.339000
0
VERTEX
8
0
10
-1.080000
20
-0.189000
0
SEQEND
8
0
0
POLYLINE
8
0
66
1
40
0.008000
41
0.008000
0
VERTEX
8
0
10
0.919000
20
-0.189000
0
VERTEX
8
0
10
0.919000
20
-0.689000
0
SEQEND
8
0
0
POLYLINE
8
0
66
1
40
0.008000
41
0.008000
0
VERTEX
8
0
10
-1.080000
20
-0.689000
0
VERTEX
8
0
10
-1.080000
20
-0.539000
0
SEQEND
8
0
0
POLYLINE
8
0
66
1
40
0.008000
41
0.008000
0
VERTEX
8
0
10
-1.080000
20
-0.189000
0
VERTEX
8
0
10
0.919000
20
-0.189000
0
SEQEND
8
0
0
POLYLINE
8
0
66
1
40
0.008000
41
0.008000
0
VERTEX
8
0
10
-1.080000
20
-0.689000
0
VERTEX
8
0
10
0.919000
20
-0.689000
0
SEQEND
8
0
0
TEXT
8
12632256
10
-1.090000
20
-0.489000
40
0.048000
41
1.041667
50
90.000000
1
U1
0
POLYLINE
8
0
66
1
40
0.008000
41
0.008000
0
VERTEX
8
0
10
-1.527000
20
-0.772000
0
VERTEX
8
0
10
-1.927000
20
-0.772000
0
SEQEND
8
0
0
POLYLINE
8
0
66
1
40
0.008000
41
0.008000
0
VERTEX
8
0
10
-1.527000
20
-1.172000
0
VERTEX
8
0
10
-1.927000
20
-1.172000
0
SEQEND
8
0
0
POLYLINE
8
0
66
1
40
0.008000
41
0.008000
0
VERTEX
8
0
10
-1.927000
20
-0.772000
0
VERTEX
8
0
10
-1.927000
20
-1.172000
0
SEQEND
8
0
0
POLYLINE
8
0
66
1
40
0.008000
41
0.008000
0
VERTEX
8
0
10
-1.527000
20
-0.772000
0
VERTEX
8
0
10
-1.527000
20
-1.172000
0
SEQEND
8
0
0
TEXT
8
12632256
10
-1.870000
20
-1.350000
40
0.048000
41
1.041667
50
90.000000
1
J16
0
CIRCLE
8
12632256
10
-1.660000
20
-1.463000
40
0.213000
0
POLYLINE
8
0
66
1
40
0.008000
41
0.008000
0
VERTEX
8
0
10
-1.470000
20
-1.383000
0
VERTEX
8
0
10
-1.510000
20
-1.383000
0
SEQEND
8
0
0
POLYLINE
8
0
66
1
40
0.008000
41
0.008000
0
VERTEX
8
0
10
-1.490000
20
-1.363000
0
VERTEX
8
0
10
-1.490000
20
-1.403000
0
SEQEND
8
0
0
TEXT
8
12632256
10
-1.389000
20
-1.538000
40
0.048000
41
1.041667
50
90.000000
1
BR1
0
CIRCLE
8
12632256
10
-1.227000
20
-1.415000
40
0.200000
0
POLYLINE
8
0
66
1
40
0.008000
41
0.008000
0
VERTEX
8
0
10
-1.127000
20
-1.290000
0
VERTEX
8
0
10
-1.127000
20
-1.340000
0
SEQEND
8
0
0
POLYLINE
8
0
66
1
40
0.008000
41
0.008000
0
VERTEX
8
0
10
-1.102000
20
-1.315000
0
VERTEX
8
0
10
-1.152000
20
-1.315000
0
SEQEND
8
0
0
TEXT
8
12632256
10
-0.969000
20
-1.465000
40
0.048000
41
1.041667
50
90.000000
1
C4
0
POLYLINE
8
0
66
1
40
0.008000
41
0.008000
0
VERTEX
8
0
10
-0.903000
20
-1.274000
0
VERTEX
8
0
10
-0.903000
20
-1.324000
0
SEQEND
8
0
0
POLYLINE
8
0
66
1
40
0.008000
41
0.008000
0
VERTEX
8
0
10
-0.928000
20
-1.524000
0
VERTEX
8
0
10
-0.878000
20
-1.524000
0
VERTEX
8
0
10
-0.878000
20
-1.324000
0
VERTEX
8
0
10
-0.928000
20
-1.324000
0
VERTEX
8
0
10
-0.928000
20
-1.524000
0
SEQEND
8
0
0
POLYLINE
8
0
66
1
40
0.008000
41
0.008000
0
VERTEX
8
0
10
-0.903000
20
-1.524000
0
VERTEX
8
0
10
-0.903000
20
-1.574000
0
SEQEND
8
0
0
TEXT
8
12632256
10
-0.820000
20
-1.499000
40
0.048000
41
1.041667
50
90.000000
1
R60
0
POLYLINE
8
0
66
1
40
0.008000
41
0.008000
0
VERTEX
8
0
10
-1.052000
20
-2.119000
0
VERTEX
8
0
10
-0.752000
20
-2.119000
0
VERTEX
8
0
10
-0.752000
20
-2.019000
0
VERTEX
8
0
10
-1.052000
20
-2.019000
0
VERTEX
8
0
10
-1.052000
20
-2.119000
0
SEQEND
8
0
0
POLYLINE
8
0
66
1
40
0.008000
41
0.008000
0
VERTEX
8
0
10
-1.052000
20
-2.019000
0
VERTEX
8
0
10
-1.052000
20
-1.969000
0
VERTEX
8
0
10
-0.752000
20
-1.969000
0
VERTEX
8
0
10
-0.752000
20
-2.019000
0
SEQEND
8
0
0
POLYLINE
8
0
66
1
40
0.008000
41
0.008000
0
VERTEX
8
0
10
-1.052000
20
-2.019000
0
VERTEX
8
0
10
-1.002000
20
-1.969000
0
SEQEND
8
0
0
POLYLINE
8
0
66
1
40
0.008000
41
0.008000
0
VERTEX
8
0
10
-1.002000
20
-2.019000
0
VERTEX
8
0
10
-0.952000
20
-1.969000
0
SEQEND
8
0
0
POLYLINE
8
0
66
1
40
0.008000
41
0.008000
0
VERTEX
8
0
10
-0.952000
20
-2.019000
0
VERTEX
8
0
10
-0.902000
20
-1.969000
0
SEQEND
8
0
0
POLYLINE
8
0
66
1
40
0.008000
41
0.008000
0
VERTEX
8
0
10
-0.902000
20
-2.019000
0
VERTEX
8
0
10
-0.852000
20
-1.969000
0
SEQEND
8
0
0
POLYLINE
8
0
66
1
40
0.008000
41
0.008000
0
VERTEX
8
0
10
-0.852000
20
-2.019000
0
VERTEX
8
0
10
-0.802000
20
-1.969000
0
SEQEND
8
0
0
POLYLINE
8
0
66
1
40
0.008000
41
0.008000
0
VERTEX
8
0
10
-0.802000
20
-2.019000
0
VERTEX
8
0
10
-0.752000
20
-1.969000
0
SEQEND
8
0
0
TEXT
8
12632256
10
-0.977000
20
-1.959000
40
0.048000
41
1.041667
1
U30
0
POLYLINE
8
0
66
1
40
0.008000
41
0.008000
0
VERTEX
8
0
10
-0.645000
20
-1.586000
0
VERTEX
8
0
10
-0.441000
20
-1.586000
0
VERTEX
8
0
10
-0.441000
20
-1.481000
0
VERTEX
8
0
10
-0.645000
20
-1.481000
0
VERTEX
8
0
10
-0.645000
20
-1.586000
0
SEQEND
8
0
0
POLYLINE
8
0
66
1
40
0.008000
41
0.008000
0
VERTEX
8
0
10
-0.613000
20
-1.482000
0
VERTEX
8
0
10
-0.613000
20
-1.585000
0
SEQEND
8
0
0
POLYLINE
8
0
66
1
40
0.008000
41
0.008000
0
VERTEX
8
0
10
-0.673000
20
-1.534000
0
VERTEX
8
0
10
-0.645000
20
-1.534000
0
SEQEND
8
0
0
POLYLINE
8
0
66
1
40
0.008000
41
0.008000
0
VERTEX
8
0
10
-0.441000
20
-1.534000
0
VERTEX
8
0
10
-0.413000
20
-1.534000
0
SEQEND
8
0
0
TEXT
8
12632256
10
-0.593000
20
-1.471000
40
0.048000
41
1.041667
1
D1
0
CIRCLE
8
12632256
10
-0.551000
20
-1.329000
40
0.100000
0
POLYLINE
8
0
66
1
40
0.008000
41
0.008000
0
VERTEX
8
0
10
-0.476000
20
-1.379000
0
VERTEX
8
0
10
-0.526000
20
-1.379000
0
SEQEND
8
0
0
POLYLINE
8
0
66
1
40
0.008000
41
0.008000
0
VERTEX
8
0
10
-0.501000
20
-1.404000
0
VERTEX
8
0
10
-0.501000
20
-1.354000
0
SEQEND
8
0
0
TEXT
8
12632256
10
-0.613000
20
-1.214000
40
0.048000
41
1.041667
1
C5
0
POLYLINE
8
0
66
1
40
0.008000
41
0.008000
0
VERTEX
8
0
10
-0.401000
20
-1.111000
0
VERTEX
8
0
10
-0.404000
20
-1.121000
0
VERTEX
8
0
10
-0.412000
20
-1.131000
0
VERTEX
8
0
10
-0.426000
20
-1.139000
0
VERTEX
8
0
10
-0.444000
20
-1.146000
0
VERTEX
8
0
10
-0.466000
20
-1.153000
0
VERTEX
8
0
10
-0.492000
20
-1.157000
0
VERTEX
8
0
10
-0.520000
20
-1.160000
0
VERTEX
8
0
10
-0.551000
20
-1.161000
0
SEQEND
8
0
0
POLYLINE
8
0
66
1
40
0.008000
41
0.008000
0
VERTEX
8
0
10
-0.701000
20
-1.111000
0
VERTEX
8
0
10
-0.698000
20
-1.121000
0
VERTEX
8
0
10
-0.689000
20
-1.131000
0
VERTEX
8
0
10
-0.676000
20
-1.139000
0
VERTEX
8
0
10
-0.658000
20
-1.146000
0
VERTEX
8
0
10
-0.636000
20
-1.153000
0
VERTEX
8
0
10
-0.610000
20
-1.157000
0
VERTEX
8
0
10
-0.582000
20
-1.160000
0
VERTEX
8
0
10
-0.551000
20
-1.161000
0
SEQEND
8
0
0
POLYLINE
8
0
66
1
40
0.008000
41
0.008000
0
VERTEX
8
0
10
-0.701000
20
-1.111000
0
VERTEX
8
0
10
-0.698000
20
-1.101000
0
VERTEX
8
0
10
-0.689000
20
-1.091000
0
VERTEX
8
0
10
-0.676000
20
-1.083000
0
VERTEX
8
0
10
-0.658000
20
-1.076000
0
VERTEX
8
0
10
-0.636000
20
-1.069000
0
VERTEX
8
0
10
-0.610000
20
-1.065000
0
VERTEX
8
0
10
-0.582000
20
-1.062000
0
VERTEX
8
0
10
-0.551000
20
-1.061000
0
SEQEND
8
0
0
POLYLINE
8
0
66
1
40
0.008000
41
0.008000
0
VERTEX
8
0
10
-0.401000
20
-1.111000
0
VERTEX
8
0
10
-0.404000
20
-1.101000
0
VERTEX
8
0
10
-0.412000
20
-1.091000
0
VERTEX
8
0
10
-0.426000
20
-1.083000
0
VERTEX
8
0
10
-0.444000
20
-1.076000
0
VERTEX
8
0
10
-0.466000
20
-1.069000
0
VERTEX
8
0
10
-0.492000
20
-1.065000
0
VERTEX
8
0
10
-0.520000
20
-1.062000
0
VERTEX
8
0
10
-0.551000
20
-1.061000
0
SEQEND
8
0
0
TEXT
8
12632256
10
-0.582000
20
-1.051000
40
0.048000
41
1.041667
1
C6
0
POLYLINE
8
0
66
1
40
0.008000
41
0.008000
0
VERTEX
8
0
10
-0.106000
20
-1.770000
0
VERTEX
8
0
10
-0.106000
20
-2.170000
0
SEQEND
8
0
0
POLYLINE
8
0
66
1
40
0.008000
41
0.008000
0
VERTEX
8
0
10
0.693000
20
-1.770000
0
VERTEX
8
0
10
0.693000
20
-2.170000
0
VERTEX
8
0
10
-0.106000
20
-2.170000
0
SEQEND
8
0
0
POLYLINE
8
0
66
1
40
0.008000
41
0.008000
0
VERTEX
8
0
10
-0.106000
20
-1.770000
0
VERTEX
8
0
10
0.693000
20
-1.770000
0
SEQEND
8
0
0
TEXT
8
12632256
10
-0.197000
20
-1.934000
40
0.048000
41
1.041667
1
J2
0
POLYLINE
8
0
66
1
40
0.008000
41
0.008000
0
VERTEX
8
0
10
0.726000
20
-1.770000
0
VERTEX
8
0
10
0.726000
20
-2.170000
0
SEQEND
8
0
0
POLYLINE
8
0
66
1
40
0.008000
41
0.008000
0
VERTEX
8
0
10
1.526000
20
-1.770000
0
VERTEX
8
0
10
1.526000
20
-2.170000
0
VERTEX
8
0
10
0.726000
20
-2.170000
0
SEQEND
8
0
0
POLYLINE
8
0
66
1
40
0.008000
41
0.008000
0
VERTEX
8
0
10
0.726000
20
-1.770000
0
VERTEX
8
0
10
1.526000
20
-1.770000
0
SEQEND
8
0
0
TEXT
8
12632256
10
1.639000
20
-1.886000
40
0.048000
41
1.041667
1
J4
0
POLYLINE
8
0
66
1
40
0.008000
41
0.008000
0
VERTEX
8
0
10
-1.550000
20
-0.256000
0
VERTEX
8
0
10
-1.950000
20
-0.256000
0
SEQEND
8
0
0
POLYLINE
8
0
66
1
40
0.008000
41
0.008000
0
VERTEX
8
0
10
-1.550000
20
-0.656000
0
VERTEX
8
0
10
-1.950000
20
-0.656000
0
SEQEND
8
0
0
POLYLINE
8
0
66
1
40
0.008000
41
0.008000
0
VERTEX
8
0
10
-1.950000
20
-0.256000
0
VERTEX
8
0
10
-1.950000
20
-0.656000
0
SEQEND
8
0
0
POLYLINE
8
0
66
1
40
0.008000
41
0.008000
0
VERTEX
8
0
10
-1.550000
20
-0.256000
0
VERTEX
8
0
10
-1.550000
20
-0.656000
0
SEQEND
8
0
0
TEXT
8
12632256
10
-1.748000
20
-0.754000
40
0.048000
41
1.041667
50
90.000000
1
J5
0
POLYLINE
8
0
66
1
40
0.008000
41
0.008000
0
VERTEX
8
0
10
-1.544000
20
0.185000
0
VERTEX
8
0
10
-1.944000
20
0.185000
0
SEQEND
8
0
0
POLYLINE
8
0
66
1
40
0.008000
41
0.008000
0
VERTEX
8
0
10
-1.544000
20
-0.214000
0
VERTEX
8
0
10
-1.944000
20
-0.214000
0
SEQEND
8
0
0
POLYLINE
8
0
66
1
40
0.008000
41
0.008000
0
VERTEX
8
0
10
-1.944000
20
0.185000
0
VERTEX
8
0
10
-1.944000
20
-0.214000
0
SEQEND
8
0
0
POLYLINE
8
0
66
1
40
0.008000
41
0.008000
0
VERTEX
8
0
10
-1.544000
20
0.185000
0
VERTEX
8
0
10
-1.544000
20
-0.214000
0
SEQEND
8
0
0
TEXT
8
12632256
10
-1.844000
20
0.222000
40
0.048000
41
1.041667
50
90.000000
1
J6
0
POLYLINE
8
0
66
1
40
0.008000
41
0.008000
0
VERTEX
8
0
10
-0.239000
20
-1.131000
0
VERTEX
8
0
10
0.660000
20
-1.131000
0
VERTEX
8
0
10
0.660000
20
-0.881000
0
VERTEX
8
0
10
-0.239000
20
-0.881000
0
VERTEX
8
0
10
-0.239000
20
-1.131000
0
SEQEND
8
0
0
POLYLINE
8
0
66
1
40
0.008000
41
0.008000
0
VERTEX
8
0
10
-0.239000
20
-0.931000
0
VERTEX
8
0
10
0.660000
20
-0.931000
0
SEQEND
8
0
0
TEXT
8
12632256
10
-0.346000
20
-1.052000
40
0.048000
41
1.041667
1
J3
0
POLYLINE
8
0
66
1
40
0.008000
41
0.008000
0
VERTEX
8
0
10
-0.138000
20
-1.275000
0
VERTEX
8
0
10
-0.138000
20
-1.325000
0
SEQEND
8
0
0
POLYLINE
8
0
66
1
40
0.008000
41
0.008000
0
VERTEX
8
0
10
-0.163000
20
-1.525000
0
VERTEX
8
0
10
-0.113000
20
-1.525000
0
VERTEX
8
0
10
-0.113000
20
-1.325000
0
VERTEX
8
0
10
-0.163000
20
-1.325000
0
VERTEX
8
0
10
-0.163000
20
-1.525000
0
SEQEND
8
0
0
POLYLINE
8
0
66
1
40
0.008000
41
0.008000
0
VERTEX
8
0
10
-0.138000
20
-1.525000
0
VERTEX
8
0
10
-0.138000
20
-1.575000
0
SEQEND
8
0
0
TEXT
8
12632256
10
-0.055000
20
-1.475000
40
0.048000
41
1.041667
50
90.000000
1
R2
0
POLYLINE
8
0
66
1
40
0.008000
41
0.008000
0
VERTEX
8
0
10
-0.026000
20
-1.275000
0
VERTEX
8
0
10
-0.026000
20
-1.325000
0
SEQEND
8
0
0
POLYLINE
8
0
66
1
40
0.008000
41
0.008000
0
VERTEX
8
0
10
-0.051000
20
-1.525000
0
VERTEX
8
0
10
-0.001000
20
-1.525000
0
VERTEX
8
0
10
-0.001000
20
-1.325000
0
VERTEX
8
0
10
-0.051000
20
-1.325000
0
VERTEX
8
0
10
-0.051000
20
-1.525000
0
SEQEND
8
0
0
POLYLINE
8
0
66
1
40
0.008000
41
0.008000
0
VERTEX
8
0
10
-0.026000
20
-1.525000
0
VERTEX
8
0
10
-0.026000
20
-1.575000
0
SEQEND
8
0
0
TEXT
8
12632256
10
0.056000
20
-1.475000
40
0.048000
41
1.041667
50
90.000000
1
R3
0
POLYLINE
8
0
66
1
40
0.008000
41
0.008000
0
VERTEX
8
0
10
0.091000
20
-1.275000
0
VERTEX
8
0
10
0.091000
20
-1.325000
0
SEQEND
8
0
0
POLYLINE
8
0
66
1
40
0.008000
41
0.008000
0
VERTEX
8
0
10
0.066000
20
-1.525000
0
VERTEX
8
0
10
0.116000
20
-1.525000
0
VERTEX
8
0
10
0.116000
20
-1.325000
0
VERTEX
8
0
10
0.066000
20
-1.325000
0
VERTEX
8
0
10
0.066000
20
-1.525000
0
SEQEND
8
0
0
POLYLINE
8
0
66
1
40
0.008000
41
0.008000
0
VERTEX
8
0
10
0.091000
20
-1.525000
0
VERTEX
8
0
10
0.091000
20
-1.575000
0
SEQEND
8
0
0
TEXT
8
12632256
10
0.174000
20
-1.475000
40
0.048000
41
1.041667
50
90.000000
1
R5
0
POLYLINE
8
0
66
1
40
0.008000
41
0.008000
0
VERTEX
8
0
10
0.209000
20
-1.275000
0
VERTEX
8
0
10
0.209000
20
-1.325000
0
SEQEND
8
0
0
POLYLINE
8
0
66
1
40
0.008000
41
0.008000
0
VERTEX
8
0
10
0.184000
20
-1.525000
0
VERTEX
8
0
10
0.234000
20
-1.525000
0
VERTEX
8
0
10
0.234000
20
-1.325000
0
VERTEX
8
0
10
0.184000
20
-1.325000
0
VERTEX
8
0
10
0.184000
20
-1.525000
0
SEQEND
8
0
0
POLYLINE
8
0
66
1
40
0.008000
41
0.008000
0
VERTEX
8
0
10
0.209000
20
-1.525000
0
VERTEX
8
0
10
0.209000
20
-1.575000
0
SEQEND
8
0
0
TEXT
8
12632256
10
0.292000
20
-1.475000
40
0.048000
41
1.041667
50
90.000000
1
R6
0
POLYLINE
8
0
66
1
40
0.008000
41
0.008000
0
VERTEX
8
0
10
1.254000
20
0.553000
0
VERTEX
8
0
10
1.254000
20
0.503000
0
SEQEND
8
0
0
POLYLINE
8
0
66
1
40
0.008000
41
0.008000
0
VERTEX
8
0
10
1.229000
20
0.303000
0
VERTEX
8
0
10
1.279000
20
0.303000
0
VERTEX
8
0
10
1.279000
20
0.503000
0
VERTEX
8
0
10
1.229000
20
0.503000
0
VERTEX
8
0
10
1.229000
20
0.303000
0
SEQEND
8
0
0
POLYLINE
8
0
66
1
40
0.008000
41
0.008000
0
VERTEX
8
0
10
1.254000
20
0.303000
0
VERTEX
8
0
10
1.254000
20
0.253000
0
SEQEND
8
0
0
TEXT
8
12632256
10
1.337000
20
0.328000
40
0.048000
41
1.041667
50
90.000000
1
R16
0
POLYLINE
8
0
66
1
40
0.008000
41
0.008000
0
VERTEX
8
0
10
1.128000
20
0.553000
0
VERTEX
8
0
10
1.128000
20
0.503000
0
SEQEND
8
0
0
POLYLINE
8
0
66
1
40
0.008000
41
0.008000
0
VERTEX
8
0
10
1.103000
20
0.303000
0
VERTEX
8
0
10
1.153000
20
0.303000
0
VERTEX
8
0
10
1.153000
20
0.503000
0
VERTEX
8
0
10
1.103000
20
0.503000
0
VERTEX
8
0
10
1.103000
20
0.303000
0
SEQEND
8
0
0
POLYLINE
8
0
66
1
40
0.008000
41
0.008000
0
VERTEX
8
0
10
1.128000
20
0.303000
0
VERTEX
8
0
10
1.128000
20
0.253000
0
SEQEND
8
0
0
TEXT
8
12632256
10
1.211000
20
0.328000
40
0.048000
41
1.041667
50
90.000000
1
R12
0
POLYLINE
8
0
66
1
40
0.008000
41
0.008000
0
VERTEX
8
0
10
1.019000
20
0.553000
0
VERTEX
8
0
10
1.019000
20
0.503000
0
SEQEND
8
0
0
POLYLINE
8
0
66
1
40
0.008000
41
0.008000
0
VERTEX
8
0
10
0.994000
20
0.303000
0
VERTEX
8
0
10
1.044000
20
0.303000
0
VERTEX
8
0
10
1.044000
20
0.503000
0
VERTEX
8
0
10
0.994000
20
0.503000
0
VERTEX
8
0
10
0.994000
20
0.303000
0
SEQEND
8
0
0
POLYLINE
8
0
66
1
40
0.008000
41
0.008000
0
VERTEX
8
0
10
1.019000
20
0.303000
0
VERTEX
8
0
10
1.019000
20
0.253000
0
SEQEND
8
0
0
TEXT
8
12632256
10
1.102000
20
0.328000
40
0.048000
41
1.041667
50
90.000000
1
R15
0
POLYLINE
8
0
66
1
40
0.008000
41
0.008000
0
VERTEX
8
0
10
0.903000
20
0.553000
0
VERTEX
8
0
10
0.903000
20
0.503000
0
SEQEND
8
0
0
POLYLINE
8
0
66
1
40
0.008000
41
0.008000
0
VERTEX
8
0
10
0.878000
20
0.303000
0
VERTEX
8
0
10
0.928000
20
0.303000
0
VERTEX
8
0
10
0.928000
20
0.503000
0
VERTEX
8
0
10
0.878000
20
0.503000
0
VERTEX
8
0
10
0.878000
20
0.303000
0
SEQEND
8
0
0
POLYLINE
8
0
66
1
40
0.008000
41
0.008000
0
VERTEX
8
0
10
0.903000
20
0.303000
0
VERTEX
8
0
10
0.903000
20
0.253000
0
SEQEND
8
0
0
TEXT
8
12632256
10
0.986000
20
0.328000
40
0.048000
41
1.041667
50
90.000000
1
R19
0
POLYLINE
8
0
66
1
40
0.008000
41
0.008000
0
VERTEX
8
0
10
1.057000
20
0.916000
0
VERTEX
8
0
10
1.057000
20
0.966000
0
SEQEND
8
0
0
POLYLINE
8
0
66
1
40
0.008000
41
0.008000
0
VERTEX
8
0
10
1.107000
20
1.016000
0
VERTEX
8
0
10
1.106000
20
1.026000
0
VERTEX
8
0
10
1.103000
20
1.036000
0
VERTEX
8
0
10
1.099000
20
1.044000
0
VERTEX
8
0
10
1.093000
20
1.052000
0
VERTEX
8
0
10
1.086000
20
1.058000
0
VERTEX
8
0
10
1.077000
20
1.062000
0
VERTEX
8
0
10
1.067000
20
1.065000
0
VERTEX
8
0
10
1.057000
20
1.066000
0
SEQEND
8
0
0
POLYLINE
8
0
66
1
40
0.008000
41
0.008000
0
VERTEX
8
0
10
1.107000
20
1.016000
0
VERTEX
8
0
10
1.106000
20
1.006000
0
VERTEX
8
0
10
1.103000
20
0.996000
0
VERTEX
8
0
10
1.099000
20
0.987000
0
VERTEX
8
0
10
1.093000
20
0.980000
0
VERTEX
8
0
10
1.086000
20
0.974000
0
VERTEX
8
0
10
1.077000
20
0.970000
0
VERTEX
8
0
10
1.067000
20
0.967000
0
VERTEX
8
0
10
1.057000
20
0.966000
0
SEQEND
8
0
0
POLYLINE
8
0
66
1
40
0.008000
41
0.008000
0
VERTEX
8
0
10
1.057000
20
1.066000
0
VERTEX
8
0
10
1.057000
20
1.116000
0
SEQEND
8
0
0
POLYLINE
8
0
66
1
40
0.008000
41
0.008000
0
VERTEX
8
0
10
1.357000
20
0.916000
0
VERTEX
8
0
10
1.357000
20
1.116000
0
SEQEND
8
0
0
POLYLINE
8
0
66
1
40
0.008000
41
0.008000
0
VERTEX
8
0
10
1.057000
20
0.916000
0
VERTEX
8
0
10
1.357000
20
0.916000
0
SEQEND
8
0
0
POLYLINE
8
0
66
1
40
0.008000
41
0.008000
0
VERTEX
8
0
10
1.057000
20
1.116000
0
VERTEX
8
0
10
1.357000
20
1.116000
0
SEQEND
8
0
0
TEXT
8
12632256
10
1.047000
20
0.941000
40
0.048000
41
1.041667
50
90.000000
1
U10
0
POLYLINE
8
0
66
1
40
0.008000
41
0.008000
0
VERTEX
8
0
10
1.057000
20
1.471000
0
VERTEX
8
0
10
1.357000
20
1.471000
0
VERTEX
8
0
10
1.357000
20
1.571000
0
VERTEX
8
0
10
1.057000
20
1.571000
0
VERTEX
8
0
10
1.057000
20
1.471000
0
SEQEND
8
0
0
POLYLINE
8
0
66
1
40
0.008000
41
0.008000
0
VERTEX
8
0
10
1.357000
20
1.471000
0
VERTEX
8
0
10
1.357000
20
1.421000
0
VERTEX
8
0
10
1.057000
20
1.421000
0
VERTEX
8
0
10
1.057000
20
1.471000
0
SEQEND
8
0
0
POLYLINE
8
0
66
1
40
0.008000
41
0.008000
0
VERTEX
8
0
10
1.357000
20
1.471000
0
VERTEX
8
0
10
1.307000
20
1.421000
0
SEQEND
8
0
0
POLYLINE
8
0
66
1
40
0.008000
41
0.008000
0
VERTEX
8
0
10
1.307000
20
1.471000
0
VERTEX
8
0
10
1.257000
20
1.421000
0
SEQEND
8
0
0
POLYLINE
8
0
66
1
40
0.008000
41
0.008000
0
VERTEX
8
0
10
1.257000
20
1.471000
0
VERTEX
8
0
10
1.207000
20
1.421000
0
SEQEND
8
0
0
POLYLINE
8
0
66
1
40
0.008000
41
0.008000
0
VERTEX
8
0
10
1.207000
20
1.471000
0
VERTEX
8
0
10
1.157000
20
1.421000
0
SEQEND
8
0
0
POLYLINE
8
0
66
1
40
0.008000
41
0.008000
0
VERTEX
8
0
10
1.157000
20
1.471000
0
VERTEX
8
0
10
1.107000
20
1.421000
0
SEQEND
8
0
0
POLYLINE
8
0
66
1
40
0.008000
41
0.008000
0
VERTEX
8
0
10
1.107000
20
1.471000
0
VERTEX
8
0
10
1.057000
20
1.421000
0
SEQEND
8
0
0
TEXT
8
12632256
10
1.132000
20
1.363000
40
0.048000
41
1.041667
1
U11
0
POLYLINE
8
0
66
1
40
0.008000
41
0.008000
0
VERTEX
8
0
10
1.054000
20
1.248000
0
VERTEX
8
0
10
1.104000
20
1.248000
0
SEQEND
8
0
0
POLYLINE
8
0
66
1
40
0.008000
41
0.008000
0
VERTEX
8
0
10
1.104000
20
1.223000
0
VERTEX
8
0
10
1.304000
20
1.223000
0
VERTEX
8
0
10
1.304000
20
1.273000
0
VERTEX
8
0
10
1.104000
20
1.273000
0
VERTEX
8
0
10
1.104000
20
1.223000
0
SEQEND
8
0
0
POLYLINE
8
0
66
1
40
0.008000
41
0.008000
0
VERTEX
8
0
10
1.304000
20
1.248000
0
VERTEX
8
0
10
1.354000
20
1.248000
0
SEQEND
8
0
0
TEXT
8
12632256
10
1.129000
20
1.283000
40
0.048000
41
1.041667
1
R11
0
POLYLINE
8
0
66
1
40
0.008000
41
0.008000
0
VERTEX
8
0
10
1.011000
20
2.166000
0
VERTEX
8
0
10
1.011000
20
1.766000
0
SEQEND
8
0
0
POLYLINE
8
0
66
1
40
0.008000
41
0.008000
0
VERTEX
8
0
10
1.411000
20
2.166000
0
VERTEX
8
0
10
1.411000
20
1.766000
0
SEQEND
8
0
0
POLYLINE
8
0
66
1
40
0.008000
41
0.008000
0
VERTEX
8
0
10
1.011000
20
1.766000
0
VERTEX
8
0
10
1.411000
20
1.766000
0
SEQEND
8
0
0
POLYLINE
8
0
66
1
40
0.008000
41
0.008000
0
VERTEX
8
0
10
1.011000
20
2.166000
0
VERTEX
8
0
10
1.411000
20
2.166000
0
SEQEND
8
0
0
TEXT
8
12632256
10
1.161000
20
2.176000
40
0.048000
41
1.041667
1
J7
0
POLYLINE
8
0
66
1
40
0.008000
41
0.008000
0
VERTEX
8
0
10
0.261000
20
0.899000
0
VERTEX
8
0
10
0.261000
20
0.949000
0
SEQEND
8
0
0
POLYLINE
8
0
66
1
40
0.008000
41
0.008000
0
VERTEX
8
0
10
0.311000
20
0.999000
0
VERTEX
8
0
10
0.310000
20
1.009000
0
VERTEX
8
0
10
0.307000
20
1.019000
0
VERTEX
8
0
10
0.303000
20
1.027000
0
VERTEX
8
0
10
0.297000
20
1.034000
0
VERTEX
8
0
10
0.290000
20
1.041000
0
VERTEX
8
0
10
0.281000
20
1.045000
0
VERTEX
8
0
10
0.271000
20
1.048000
0
VERTEX
8
0
10
0.261000
20
1.049000
0
SEQEND
8
0
0
POLYLINE
8
0
66
1
40
0.008000
41
0.008000
0
VERTEX
8
0
10
0.311000
20
0.999000
0
VERTEX
8
0
10
0.310000
20
0.989000
0
VERTEX
8
0
10
0.307000
20
0.979000
0
VERTEX
8
0
10
0.303000
20
0.970000
0
VERTEX
8
0
10
0.297000
20
0.963000
0
VERTEX
8
0
10
0.290000
20
0.957000
0
VERTEX
8
0
10
0.281000
20
0.953000
0
VERTEX
8
0
10
0.271000
20
0.950000
0
VERTEX
8
0
10
0.261000
20
0.949000
0
SEQEND
8
0
0
POLYLINE
8
0
66
1
40
0.008000
41
0.008000
0
VERTEX
8
0
10
0.261000
20
1.049000
0
VERTEX
8
0
10
0.261000
20
1.099000
0
SEQEND
8
0
0
POLYLINE
8
0
66
1
40
0.008000
41
0.008000
0
VERTEX
8
0
10
0.561000
20
0.899000
0
VERTEX
8
0
10
0.561000
20
1.099000
0
SEQEND
8
0
0
POLYLINE
8
0
66
1
40
0.008000
41
0.008000
0
VERTEX
8
0
10
0.261000
20
0.899000
0
VERTEX
8
0
10
0.561000
20
0.899000
0
SEQEND
8
0
0
POLYLINE
8
0
66
1
40
0.008000
41
0.008000
0
VERTEX
8
0
10
0.261000
20
1.099000
0
VERTEX
8
0
10
0.561000
20
1.099000
0
SEQEND
8
0
0
TEXT
8
12632256
10
0.251000
20
0.949000
40
0.048000
41
1.041667
50
90.000000
1
U3
0
POLYLINE
8
0
66
1
40
0.008000
41
0.008000
0
VERTEX
8
0
10
0.272000
20
1.454000
0
VERTEX
8
0
10
0.572000
20
1.454000
0
VERTEX
8
0
10
0.572000
20
1.554000
0
VERTEX
8
0
10
0.272000
20
1.554000
0
VERTEX
8
0
10
0.272000
20
1.454000
0
SEQEND
8
0
0
POLYLINE
8
0
66
1
40
0.008000
41
0.008000
0
VERTEX
8
0
10
0.572000
20
1.454000
0
VERTEX
8
0
10
0.572000
20
1.404000
0
VERTEX
8
0
10
0.272000
20
1.404000
0
VERTEX
8
0
10
0.272000
20
1.454000
0
SEQEND
8
0
0
POLYLINE
8
0
66
1
40
0.008000
41
0.008000
0
VERTEX
8
0
10
0.572000
20
1.454000
0
VERTEX
8
0
10
0.522000
20
1.404000
0
SEQEND
8
0
0
POLYLINE
8
0
66
1
40
0.008000
41
0.008000
0
VERTEX
8
0
10
0.522000
20
1.454000
0
VERTEX
8
0
10
0.472000
20
1.404000
0
SEQEND
8
0
0
POLYLINE
8
0
66
1
40
0.008000
41
0.008000
0
VERTEX
8
0
10
0.472000
20
1.454000
0
VERTEX
8
0
10
0.422000
20
1.404000
0
SEQEND
8
0
0
POLYLINE
8
0
66
1
40
0.008000
41
0.008000
0
VERTEX
8
0
10
0.422000
20
1.454000
0
VERTEX
8
0
10
0.372000
20
1.404000
0
SEQEND
8
0
0
POLYLINE
8
0
66
1
40
0.008000
41
0.008000
0
VERTEX
8
0
10
0.372000
20
1.454000
0
VERTEX
8
0
10
0.322000
20
1.404000
0
SEQEND
8
0
0
POLYLINE
8
0
66
1
40
0.008000
41
0.008000
0
VERTEX
8
0
10
0.322000
20
1.454000
0
VERTEX
8
0
10
0.272000
20
1.404000
0
SEQEND
8
0
0
TEXT
8
12632256
10
0.372000
20
1.346000
40
0.048000
41
1.041667
1
U4
0
POLYLINE
8
0
66
1
40
0.008000
41
0.008000
0
VERTEX
8
0
10
0.266000
20
2.166000
0
VERTEX
8
0
10
0.266000
20
1.766000
0
SEQEND
8
0
0
POLYLINE
8
0
66
1
40
0.008000
41
0.008000
0
VERTEX
8
0
10
0.666000
20
2.166000
0
VERTEX
8
0
10
0.666000
20
1.766000
0
SEQEND
8
0
0
POLYLINE
8
0
66
1
40
0.008000
41
0.008000
0
VERTEX
8
0
10
0.266000
20
1.766000
0
VERTEX
8
0
10
0.666000
20
1.766000
0
SEQEND
8
0
0
POLYLINE
8
0
66
1
40
0.008000
41
0.008000
0
VERTEX
8
0
10
0.266000
20
2.166000
0
VERTEX
8
0
10
0.666000
20
2.166000
0
SEQEND
8
0
0
TEXT
8
12632256
10
0.416000
20
2.176000
40
0.048000
41
1.041667
1
J8
0
POLYLINE
8
0
66
1
40
0.008000
41
0.008000
0
VERTEX
8
0
10
0.233000
20
1.240000
0
VERTEX
8
0
10
0.283000
20
1.240000
0
SEQEND
8
0
0
POLYLINE
8
0
66
1
40
0.008000
41
0.008000
0
VERTEX
8
0
10
0.283000
20
1.215000
0
VERTEX
8
0
10
0.483000
20
1.215000
0
VERTEX
8
0
10
0.483000
20
1.265000
0
VERTEX
8
0
10
0.283000
20
1.265000
0
VERTEX
8
0
10
0.283000
20
1.215000
0
SEQEND
8
0
0
POLYLINE
8
0
66
1
40
0.008000
41
0.008000
0
VERTEX
8
0
10
0.483000
20
1.240000
0
VERTEX
8
0
10
0.533000
20
1.240000
0
SEQEND
8
0
0
TEXT
8
12632256
10
0.308000
20
1.275000
40
0.048000
41
1.041667
1
R10
0
POLYLINE
8
0
66
1
40
0.008000
41
0.008000
0
VERTEX
8
0
10
-0.483000
20
0.907000
0
VERTEX
8
0
10
-0.483000
20
0.957000
0
SEQEND
8
0
0
POLYLINE
8
0
66
1
40
0.008000
41
0.008000
0
VERTEX
8
0
10
-0.433000
20
1.007000
0
VERTEX
8
0
10
-0.434000
20
1.017000
0
VERTEX
8
0
10
-0.437000
20
1.027000
0
VERTEX
8
0
10
-0.441000
20
1.035000
0
VERTEX
8
0
10
-0.447000
20
1.042000
0
VERTEX
8
0
10
-0.454000
20
1.049000
0
VERTEX
8
0
10
-0.463000
20
1.053000
0
VERTEX
8
0
10
-0.473000
20
1.056000
0
VERTEX
8
0
10
-0.483000
20
1.057000
0
SEQEND
8
0
0
POLYLINE
8
0
66
1
40
0.008000
41
0.008000
0
VERTEX
8
0
10
-0.433000
20
1.007000
0
VERTEX
8
0
10
-0.434000
20
0.997000
0
VERTEX
8
0
10
-0.437000
20
0.987000
0
VERTEX
8
0
10
-0.441000
20
0.978000
0
VERTEX
8
0
10
-0.447000
20
0.971000
0
VERTEX
8
0
10
-0.454000
20
0.965000
0
VERTEX
8
0
10
-0.463000
20
0.961000
0
VERTEX
8
0
10
-0.473000
20
0.958000
0
VERTEX
8
0
10
-0.483000
20
0.957000
0
SEQEND
8
0
0
POLYLINE
8
0
66
1
40
0.008000
41
0.008000
0
VERTEX
8
0
10
-0.483000
20
1.057000
0
VERTEX
8
0
10
-0.483000
20
1.107000
0
SEQEND
8
0
0
POLYLINE
8
0
66
1
40
0.008000
41
0.008000
0
VERTEX
8
0
10
-0.183000
20
0.907000
0
VERTEX
8
0
10
-0.183000
20
1.107000
0
SEQEND
8
0
0
POLYLINE
8
0
66
1
40
0.008000
41
0.008000
0
VERTEX
8
0
10
-0.483000
20
0.907000
0
VERTEX
8
0
10
-0.183000
20
0.907000
0
SEQEND
8
0
0
POLYLINE
8
0
66
1
40
0.008000
41
0.008000
0
VERTEX
8
0
10
-0.483000
20
1.107000
0
VERTEX
8
0
10
-0.183000
20
1.107000
0
SEQEND
8
0
0
TEXT
8
12632256
10
-0.493000
20
0.957000
40
0.048000
41
1.041667
50
90.000000
1
U5
0
POLYLINE
8
0
66
1
40
0.008000
41
0.008000
0
VERTEX
8
0
10
-0.496000
20
1.462000
0
VERTEX
8
0
10
-0.196000
20
1.462000
0
VERTEX
8
0
10
-0.196000
20
1.562000
0
VERTEX
8
0
10
-0.496000
20
1.562000
0
VERTEX
8
0
10
-0.496000
20
1.462000
0
SEQEND
8
0
0
POLYLINE
8
0
66
1
40
0.008000
41
0.008000
0
VERTEX
8
0
10
-0.196000
20
1.462000
0
VERTEX
8
0
10
-0.196000
20
1.412000
0
VERTEX
8
0
10
-0.496000
20
1.412000
0
VERTEX
8
0
10
-0.496000
20
1.462000
0
SEQEND
8
0
0
POLYLINE
8
0
66
1
40
0.008000
41
0.008000
0
VERTEX
8
0
10
-0.196000
20
1.462000
0
VERTEX
8
0
10
-0.246000
20
1.412000
0
SEQEND
8
0
0
POLYLINE
8
0
66
1
40
0.008000
41
0.008000
0
VERTEX
8
0
10
-0.246000
20
1.462000
0
VERTEX
8
0
10
-0.296000
20
1.412000
0
SEQEND
8
0
0
POLYLINE
8
0
66
1
40
0.008000
41
0.008000
0
VERTEX
8
0
10
-0.296000
20
1.462000
0
VERTEX
8
0
10
-0.346000
20
1.412000
0
SEQEND
8
0
0
POLYLINE
8
0
66
1
40
0.008000
41
0.008000
0
VERTEX
8
0
10
-0.346000
20
1.462000
0
VERTEX
8
0
10
-0.396000
20
1.412000
0
SEQEND
8
0
0
POLYLINE
8
0
66
1
40
0.008000
41
0.008000
0
VERTEX
8
0
10
-0.396000
20
1.462000
0
VERTEX
8
0
10
-0.446000
20
1.412000
0
SEQEND
8
0
0
POLYLINE
8
0
66
1
40
0.008000
41
0.008000
0
VERTEX
8
0
10
-0.446000
20
1.462000
0
VERTEX
8
0
10
-0.496000
20
1.412000
0
SEQEND
8
0
0
TEXT
8
12632256
10
-0.396000
20
1.354000
40
0.048000
41
1.041667
1
U6
0
POLYLINE
8
0
66
1
40
0.008000
41
0.008000
0
VERTEX
8
0
10
-0.495000
20
1.242000
0
VERTEX
8
0
10
-0.445000
20
1.242000
0
SEQEND
8
0
0
POLYLINE
8
0
66
1
40
0.008000
41
0.008000
0
VERTEX
8
0
10
-0.445000
20
1.217000
0
VERTEX
8
0
10
-0.245000
20
1.217000
0
VERTEX
8
0
10
-0.245000
20
1.267000
0
VERTEX
8
0
10
-0.445000
20
1.267000
0
VERTEX
8
0
10
-0.445000
20
1.217000
0
SEQEND
8
0
0
POLYLINE
8
0
66
1
40
0.008000
41
0.008000
0
VERTEX
8
0
10
-0.245000
20
1.242000
0
VERTEX
8
0
10
-0.195000
20
1.242000
0
SEQEND
8
0
0
TEXT
8
12632256
10
-0.420000
20
1.277000
40
0.048000
41
1.041667
1
R14
0
POLYLINE
8
0
66
1
40
0.008000
41
0.008000
0
VERTEX
8
0
10
-0.536000
20
2.166000
0
VERTEX
8
0
10
-0.536000
20
1.766000
0
SEQEND
8
0
0
POLYLINE
8
0
66
1
40
0.008000
41
0.008000
0
VERTEX
8
0
10
-0.136000
20
2.166000
0
VERTEX
8
0
10
-0.136000
20
1.766000
0
SEQEND
8
0
0
POLYLINE
8
0
66
1
40
0.008000
41
0.008000
0
VERTEX
8
0
10
-0.536000
20
1.766000
0
VERTEX
8
0
10
-0.136000
20
1.766000
0
SEQEND
8
0
0
POLYLINE
8
0
66
1
40
0.008000
41
0.008000
0
VERTEX
8
0
10
-0.536000
20
2.166000
0
VERTEX
8
0
10
-0.136000
20
2.166000
0
SEQEND
8
0
0
TEXT
8
12632256
10
-0.411000
20
2.176000
40
0.048000
41
1.041667
1
J10
0
POLYLINE
8
0
66
1
40
0.008000
41
0.008000
0
VERTEX
8
0
10
-1.307000
20
0.907000
0
VERTEX
8
0
10
-1.307000
20
0.957000
0
SEQEND
8
0
0
POLYLINE
8
0
66
1
40
0.008000
41
0.008000
0
VERTEX
8
0
10
-1.257000
20
1.007000
0
VERTEX
8
0
10
-1.258000
20
1.017000
0
VERTEX
8
0
10
-1.261000
20
1.027000
0
VERTEX
8
0
10
-1.265000
20
1.035000
0
VERTEX
8
0
10
-1.271000
20
1.042000
0
VERTEX
8
0
10
-1.278000
20
1.049000
0
VERTEX
8
0
10
-1.287000
20
1.053000
0
VERTEX
8
0
10
-1.297000
20
1.056000
0
VERTEX
8
0
10
-1.307000
20
1.057000
0
SEQEND
8
0
0
POLYLINE
8
0
66
1
40
0.008000
41
0.008000
0
VERTEX
8
0
10
-1.257000
20
1.007000
0
VERTEX
8
0
10
-1.258000
20
0.997000
0
VERTEX
8
0
10
-1.261000
20
0.987000
0
VERTEX
8
0
10
-1.265000
20
0.978000
0
VERTEX
8
0
10
-1.271000
20
0.971000
0
VERTEX
8
0
10
-1.278000
20
0.965000
0
VERTEX
8
0
10
-1.287000
20
0.961000
0
VERTEX
8
0
10
-1.297000
20
0.958000
0
VERTEX
8
0
10
-1.307000
20
0.957000
0
SEQEND
8
0
0
POLYLINE
8
0
66
1
40
0.008000
41
0.008000
0
VERTEX
8
0
10
-1.307000
20
1.057000
0
VERTEX
8
0
10
-1.307000
20
1.107000
0
SEQEND
8
0
0
POLYLINE
8
0
66
1
40
0.008000
41
0.008000
0
VERTEX
8
0
10
-1.007000
20
0.907000
0
VERTEX
8
0
10
-1.007000
20
1.107000
0
SEQEND
8
0
0
POLYLINE
8
0
66
1
40
0.008000
41
0.008000
0
VERTEX
8
0
10
-1.307000
20
0.907000
0
VERTEX
8
0
10
-1.007000
20
0.907000
0
SEQEND
8
0
0
POLYLINE
8
0
66
1
40
0.008000
41
0.008000
0
VERTEX
8
0
10
-1.307000
20
1.107000
0
VERTEX
8
0
10
-1.007000
20
1.107000
0
SEQEND
8
0
0
TEXT
8
12632256
10
-1.317000
20
0.957000
40
0.048000
41
1.041667
50
90.000000
1
U7
0
POLYLINE
8
0
66
1
40
0.008000
41
0.008000
0
VERTEX
8
0
10
-1.318000
20
1.462000
0
VERTEX
8
0
10
-1.018000
20
1.462000
0
VERTEX
8
0
10
-1.018000
20
1.562000
0
VERTEX
8
0
10
-1.318000
20
1.562000
0
VERTEX
8
0
10
-1.318000
20
1.462000
0
SEQEND
8
0
0
POLYLINE
8
0
66
1
40
0.008000
41
0.008000
0
VERTEX
8
0
10
-1.018000
20
1.462000
0
VERTEX
8
0
10
-1.018000
20
1.412000
0
VERTEX
8
0
10
-1.318000
20
1.412000
0
VERTEX
8
0
10
-1.318000
20
1.462000
0
SEQEND
8
0
0
POLYLINE
8
0
66
1
40
0.008000
41
0.008000
0
VERTEX
8
0
10
-1.018000
20
1.462000
0
VERTEX
8
0
10
-1.068000
20
1.412000
0
SEQEND
8
0
0
POLYLINE
8
0
66
1
40
0.008000
41
0.008000
0
VERTEX
8
0
10
-1.068000
20
1.462000
0
VERTEX
8
0
10
-1.118000
20
1.412000
0
SEQEND
8
0
0
POLYLINE
8
0
66
1
40
0.008000
41
0.008000
0
VERTEX
8
0
10
-1.118000
20
1.462000
0
VERTEX
8
0
10
-1.168000
20
1.412000
0
SEQEND
8
0
0
POLYLINE
8
0
66
1
40
0.008000
41
0.008000
0
VERTEX
8
0
10
-1.168000
20
1.462000
0
VERTEX
8
0
10
-1.218000
20
1.412000
0
SEQEND
8
0
0
POLYLINE
8
0
66
1
40
0.008000
41
0.008000
0
VERTEX
8
0
10
-1.218000
20
1.462000
0
VERTEX
8
0
10
-1.268000
20
1.412000
0
SEQEND
8
0
0
POLYLINE
8
0
66
1
40
0.008000
41
0.008000
0
VERTEX
8
0
10
-1.268000
20
1.462000
0
VERTEX
8
0
10
-1.318000
20
1.412000
0
SEQEND
8
0
0
TEXT
8
12632256
10
-1.218000
20
1.354000
40
0.048000
41
1.041667
1
U8
0
POLYLINE
8
0
66
1
40
0.008000
41
0.008000
0
VERTEX
8
0
10
-1.363000
20
2.166000
0
VERTEX
8
0
10
-1.363000
20
1.766000
0
SEQEND
8
0
0
POLYLINE
8
0
66
1
40
0.008000
41
0.008000
0
VERTEX
8
0
10
-0.963000
20
2.166000
0
VERTEX
8
0
10
-0.963000
20
1.766000
0
SEQEND
8
0
0
POLYLINE
8
0
66
1
40
0.008000
41
0.008000
0
VERTEX
8
0
10
-1.363000
20
1.766000
0
VERTEX
8
0
10
-0.963000
20
1.766000
0
SEQEND
8
0
0
POLYLINE
8
0
66
1
40
0.008000
41
0.008000
0
VERTEX
8
0
10
-1.363000
20
2.166000
0
VERTEX
8
0
10
-0.963000
20
2.166000
0
SEQEND
8
0
0
TEXT
8
12632256
10
-1.238000
20
2.176000
40
0.048000
41
1.041667
1
J11
0
POLYLINE
8
0
66
1
40
0.008000
41
0.008000
0
VERTEX
8
0
10
-1.313000
20
1.249000
0
VERTEX
8
0
10
-1.263000
20
1.249000
0
SEQEND
8
0
0
POLYLINE
8
0
66
1
40
0.008000
41
0.008000
0
VERTEX
8
0
10
-1.263000
20
1.224000
0
VERTEX
8
0
10
-1.063000
20
1.224000
0
VERTEX
8
0
10
-1.063000
20
1.274000
0
VERTEX
8
0
10
-1.263000
20
1.274000
0
VERTEX
8
0
10
-1.263000
20
1.224000
0
SEQEND
8
0
0
POLYLINE
8
0
66
1
40
0.008000
41
0.008000
0
VERTEX
8
0
10
-1.063000
20
1.249000
0
VERTEX
8
0
10
-1.013000
20
1.249000
0
SEQEND
8
0
0
TEXT
8
12632256
10
-1.238000
20
1.284000
40
0.048000
41
1.041667
1
R18
0
POLYLINE
8
0
66
1
40
0.008000
41
0.008000
0
VERTEX
8
0
10
-1.915000
20
0.980000
0
VERTEX
8
0
10
-1.515000
20
0.980000
0
SEQEND
8
0
0
POLYLINE
8
0
66
1
40
0.008000
41
0.008000
0
VERTEX
8
0
10
-1.915000
20
1.380000
0
VERTEX
8
0
10
-1.515000
20
1.380000
0
SEQEND
8
0
0
POLYLINE
8
0
66
1
40
0.008000
41
0.008000
0
VERTEX
8
0
10
-1.515000
20
0.980000
0
VERTEX
8
0
10
-1.515000
20
1.380000
0
SEQEND
8
0
0
POLYLINE
8
0
66
1
40
0.008000
41
0.008000
0
VERTEX
8
0
10
-1.915000
20
0.980000
0
VERTEX
8
0
10
-1.915000
20
1.380000
0
SEQEND
8
0
0
TEXT
8
12632256
10
-1.925000
20
1.105000
40
0.048000
41
1.041667
50
90.000000
1
J12
0
POLYLINE
8
0
66
1
40
0.008000
41
0.008000
0
VERTEX
8
0
10
-1.735000
20
0.341000
0
VERTEX
8
0
10
0.364000
20
0.341000
0
VERTEX
8
0
10
0.364000
20
0.591000
0
VERTEX
8
0
10
-1.735000
20
0.591000
0
VERTEX
8
0
10
-1.735000
20
0.341000
0
SEQEND
8
0
0
POLYLINE
8
0
66
1
40
0.008000
41
0.008000
0
VERTEX
8
0
10
0.364000
20
0.391000
0
VERTEX
8
0
10
-1.735000
20
0.391000
0
SEQEND
8
0
0
TEXT
8
12632256
10
-0.735000
20
0.283000
40
0.048000
41
1.041667
1
J9
0
POLYLINE
8
0
66
1
40
0.008000
41
0.008000
0
VERTEX
8
0
10
1.590000
20
-1.854000
0
VERTEX
8
0
10
1.590000
20
-1.804000
0
SEQEND
8
0
0
POLYLINE
8
0
66
1
40
0.008000
41
0.008000
0
VERTEX
8
0
10
1.565000
20
-1.804000
0
VERTEX
8
0
10
1.615000
20
-1.804000
0
VERTEX
8
0
10
1.615000
20
-1.604000
0
VERTEX
8
0
10
1.565000
20
-1.604000
0
VERTEX
8
0
10
1.565000
20
-1.804000
0
SEQEND
8
0
0
POLYLINE
8
0
66
1
40
0.008000
41
0.008000
0
VERTEX
8
0
10
1.590000
20
-1.604000
0
VERTEX
8
0
10
1.590000
20
-1.554000
0
SEQEND
8
0
0
TEXT
8
12632256
10
1.693000
20
-1.712000
40
0.048000
41
1.041667
50
90.000000
1
R24
0
CIRCLE
8
12632256
10
1.307000
20
-1.522000
40
0.000000
0
CIRCLE
8
12632256
10
1.307000
20
-1.522000
40
0.100000
0
POLYLINE
8
0
66
1
40
0.008000
41
0.008000
0
VERTEX
8
0
10
1.432000
20
-1.622000
0
VERTEX
8
0
10
1.382000
20
-1.622000
0
SEQEND
8
0
0
POLYLINE
8
0
66
1
40
0.008000
41
0.008000
0
VERTEX
8
0
10
1.407000
20
-1.647000
0
VERTEX
8
0
10
1.407000
20
-1.597000
0
SEQEND
8
0
0
TEXT
8
12632256
10
1.270000
20
-1.705000
40
0.048000
41
1.041667
1
D2
0
POLYLINE
8
0
66
1
40
0.008000
41
0.008000
0
VERTEX
8
0
10
-1.401000
20
-1.128000
0
VERTEX
8
0
10
-1.101000
20
-1.128000
0
VERTEX
8
0
10
-1.101000
20
-0.878000
0
VERTEX
8
0
10
-1.401000
20
-0.878000
0
VERTEX
8
0
10
-1.401000
20
-1.128000
0
SEQEND
8
0
0
POLYLINE
8
0
66
1
40
0.008000
41
0.008000
0
VERTEX
8
0
10
-1.101000
20
-1.078000
0
VERTEX
8
0
10
-1.401000
20
-1.078000
0
SEQEND
8
0
0
TEXT
8
12632256
10
-1.186000
20
-0.867000
40
0.048000
41
1.041667
1
J1
0
POLYLINE
8
0
66
1
40
0.008000
41
0.008000
0
VERTEX
8
0
10
-1.035000
20
-0.881000
0
VERTEX
8
0
10
-1.035000
20
-0.931000
0
SEQEND
8
0
0
POLYLINE
8
0
66
1
40
0.008000
41
0.008000
0
VERTEX
8
0
10
-1.060000
20
-1.131000
0
VERTEX
8
0
10
-1.010000
20
-1.131000
0
VERTEX
8
0
10
-1.010000
20
-0.931000
0
VERTEX
8
0
10
-1.060000
20
-0.931000
0
VERTEX
8
0
10
-1.060000
20
-1.131000
0
SEQEND
8
0
0
POLYLINE
8
0
66
1
40
0.008000
41
0.008000
0
VERTEX
8
0
10
-1.035000
20
-1.131000
0
VERTEX
8
0
10
-1.035000
20
-1.181000
0
SEQEND
8
0
0
TEXT
8
12632256
10
-0.952000
20
-1.081000
40
0.048000
41
1.041667
50
90.000000
1
R1
0
POLYLINE
8
0
66
1
40
0.008000
41
0.008000
0
VERTEX
8
0
10
-1.125000
20
-0.785000
0
VERTEX
8
0
10
-1.128000
20
-0.795000
0
VERTEX
8
0
10
-1.136000
20
-0.805000
0
VERTEX
8
0
10
-1.150000
20
-0.813000
0
VERTEX
8
0
10
-1.168000
20
-0.820000
0
VERTEX
8
0
10
-1.190000
20
-0.827000
0
VERTEX
8
0
10
-1.216000
20
-0.831000
0
VERTEX
8
0
10
-1.244000
20
-0.834000
0
VERTEX
8
0
10
-1.275000
20
-0.835000
0
SEQEND
8
0
0
POLYLINE
8
0
66
1
40
0.008000
41
0.008000
0
VERTEX
8
0
10
-1.425000
20
-0.785000
0
VERTEX
8
0
10
-1.422000
20
-0.795000
0
VERTEX
8
0
10
-1.413000
20
-0.805000
0
VERTEX
8
0
10
-1.400000
20
-0.813000
0
VERTEX
8
0
10
-1.382000
20
-0.820000
0
VERTEX
8
0
10
-1.360000
20
-0.827000
0
VERTEX
8
0
10
-1.334000
20
-0.831000
0
VERTEX
8
0
10
-1.306000
20
-0.834000
0
VERTEX
8
0
10
-1.275000
20
-0.835000
0
SEQEND
8
0
0
POLYLINE
8
0
66
1
40
0.008000
41
0.008000
0
VERTEX
8
0
10
-1.425000
20
-0.785000
0
VERTEX
8
0
10
-1.422000
20
-0.775000
0
VERTEX
8
0
10
-1.413000
20
-0.765000
0
VERTEX
8
0
10
-1.400000
20
-0.757000
0
VERTEX
8
0
10
-1.382000
20
-0.750000
0
VERTEX
8
0
10
-1.360000
20
-0.743000
0
VERTEX
8
0
10
-1.334000
20
-0.739000
0
VERTEX
8
0
10
-1.306000
20
-0.736000
0
VERTEX
8
0
10
-1.275000
20
-0.735000
0
SEQEND
8
0
0
POLYLINE
8
0
66
1
40
0.008000
41
0.008000
0
VERTEX
8
0
10
-1.125000
20
-0.785000
0
VERTEX
8
0
10
-1.128000
20
-0.775000
0
VERTEX
8
0
10
-1.136000
20
-0.765000
0
VERTEX
8
0
10
-1.150000
20
-0.757000
0
VERTEX
8
0
10
-1.168000
20
-0.750000
0
VERTEX
8
0
10
-1.190000
20
-0.743000
0
VERTEX
8
0
10
-1.216000
20
-0.739000
0
VERTEX
8
0
10
-1.244000
20
-0.736000
0
VERTEX
8
0
10
-1.275000
20
-0.735000
0
SEQEND
8
0
0
TEXT
8
12632256
10
-1.297000
20
-0.712000
40
0.048000
41
1.041667
1
C2
0
POLYLINE
8
0
66
1
40
0.008000
41
0.008000
0
VERTEX
8
0
10
-0.908000
20
-0.629000
0
VERTEX
8
0
10
-0.858000
20
-0.629000
0
SEQEND
8
0
0
POLYLINE
8
0
66
1
40
0.008000
41
0.008000
0
VERTEX
8
0
10
-0.858000
20
-0.654000
0
VERTEX
8
0
10
-0.658000
20
-0.654000
0
VERTEX
8
0
10
-0.658000
20
-0.604000
0
VERTEX
8
0
10
-0.858000
20
-0.604000
0
VERTEX
8
0
10
-0.858000
20
-0.654000
0
SEQEND
8
0
0
POLYLINE
8
0
66
1
40
0.008000
41
0.008000
0
VERTEX
8
0
10
-0.658000
20
-0.629000
0
VERTEX
8
0
10
-0.608000
20
-0.629000
0
SEQEND
8
0
0
TEXT
8
12632256
10
-0.808000
20
-0.594000
40
0.048000
41
1.041667
1
R4
0
POLYLINE
8
0
66
1
40
0.008000
41
0.008000
0
VERTEX
8
0
10
-0.812000
20
-0.499000
0
VERTEX
8
0
10
-0.762000
20
-0.499000
0
SEQEND
8
0
0
POLYLINE
8
0
66
1
40
0.008000
41
0.008000
0
VERTEX
8
0
10
-0.762000
20
-0.524000
0
VERTEX
8
0
10
-0.562000
20
-0.524000
0
VERTEX
8
0
10
-0.562000
20
-0.474000
0
VERTEX
8
0
10
-0.762000
20
-0.474000
0
VERTEX
8
0
10
-0.762000
20
-0.524000
0
SEQEND
8
0
0
POLYLINE
8
0
66
1
40
0.008000
41
0.008000
0
VERTEX
8
0
10
-0.562000
20
-0.499000
0
VERTEX
8
0
10
-0.512000
20
-0.499000
0
SEQEND
8
0
0
TEXT
8
12632256
10
-0.712000
20
-0.464000
40
0.048000
41
1.041667
1
R7
0
POLYLINE
8
0
66
1
40
0.008000
41
0.008000
0
VERTEX
8
0
10
0.072000
20
-0.468000
0
VERTEX
8
0
10
0.372000
20
-0.468000
0
VERTEX
8
0
10
0.422000
20
-0.518000
0
VERTEX
8
0
10
0.422000
20
-0.618000
0
VERTEX
8
0
10
0.372000
20
-0.668000
0
VERTEX
8
0
10
0.072000
20
-0.668000
0
VERTEX
8
0
10
0.022000
20
-0.618000
0
VERTEX
8
0
10
0.022000
20
-0.518000
0
VERTEX
8
0
10
0.072000
20
-0.468000
0
SEQEND
8
0
0
TEXT
8
12632256
10
0.172000
20
-0.458000
40
0.048000
41
1.041667
1
X1
0
POLYLINE
8
0
66
1
40
0.008000
41
0.008000
0
VERTEX
8
0
10
0.173000
20
-0.373000
0
VERTEX
8
0
10
0.171000
20
-0.383000
0
VERTEX
8
0
10
0.165000
20
-0.393000
0
VERTEX
8
0
10
0.156000
20
-0.401000
0
VERTEX
8
0
10
0.144000
20
-0.408000
0
VERTEX
8
0
10
0.129000
20
-0.415000
0
VERTEX
8
0
10
0.112000
20
-0.419000
0
VERTEX
8
0
10
0.093000
20
-0.422000
0
VERTEX
8
0
10
0.073000
20
-0.423000
0
SEQEND
8
0
0
POLYLINE
8
0
66
1
40
0.008000
41
0.008000
0
VERTEX
8
0
10
-0.026000
20
-0.373000
0
VERTEX
8
0
10
-0.024000
20
-0.383000
0
VERTEX
8
0
10
-0.018000
20
-0.393000
0
VERTEX
8
0
10
-0.010000
20
-0.401000
0
VERTEX
8
0
10
0.002000
20
-0.408000
0
VERTEX
8
0
10
0.017000
20
-0.415000
0
VERTEX
8
0
10
0.034000
20
-0.419000
0
VERTEX
8
0
10
0.053000
20
-0.422000
0
VERTEX
8
0
10
0.073000
20
-0.423000
0
SEQEND
8
0
0
POLYLINE
8
0
66
1
40
0.008000
41
0.008000
0
VERTEX
8
0
10
0.173000
20
-0.373000
0
VERTEX
8
0
10
0.171000
20
-0.363000
0
VERTEX
8
0
10
0.165000
20
-0.353000
0
VERTEX
8
0
10
0.156000
20
-0.345000
0
VERTEX
8
0
10
0.144000
20
-0.338000
0
VERTEX
8
0
10
0.129000
20
-0.331000
0
VERTEX
8
0
10
0.112000
20
-0.327000
0
VERTEX
8
0
10
0.093000
20
-0.324000
0
VERTEX
8
0
10
0.073000
20
-0.323000
0
SEQEND
8
0
0
POLYLINE
8
0
66
1
40
0.008000
41
0.008000
0
VERTEX
8
0
10
-0.026000
20
-0.373000
0
VERTEX
8
0
10
-0.024000
20
-0.363000
0
VERTEX
8
0
10
-0.018000
20
-0.353000
0
VERTEX
8
0
10
-0.010000
20
-0.345000
0
VERTEX
8
0
10
0.002000
20
-0.338000
0
VERTEX
8
0
10
0.017000
20
-0.331000
0
VERTEX
8
0
10
0.034000
20
-0.327000
0
VERTEX
8
0
10
0.053000
20
-0.324000
0
VERTEX
8
0
10
0.073000
20
-0.323000
0
SEQEND
8
0
0
TEXT
8
12632256
10
0.019000
20
-0.312000
40
0.048000
41
1.041667
1
C8
0
POLYLINE
8
0
66
1
40
0.008000
41
0.008000
0
VERTEX
8
0
10
0.268000
20
-0.378000
0
VERTEX
8
0
10
0.270000
20
-0.368000
0
VERTEX
8
0
10
0.276000
20
-0.358000
0
VERTEX
8
0
10
0.285000
20
-0.350000
0
VERTEX
8
0
10
0.297000
20
-0.342000
0
VERTEX
8
0
10
0.312000
20
-0.336000
0
VERTEX
8
0
10
0.329000
20
-0.332000
0
VERTEX
8
0
10
0.348000
20
-0.329000
0
VERTEX
8
0
10
0.368000
20
-0.328000
0
SEQEND
8
0
0
POLYLINE
8
0
66
1
40
0.008000
41
0.008000
0
VERTEX
8
0
10
0.468000
20
-0.378000
0
VERTEX
8
0
10
0.466000
20
-0.368000
0
VERTEX
8
0
10
0.460000
20
-0.358000
0
VERTEX
8
0
10
0.451000
20
-0.350000
0
VERTEX
8
0
10
0.439000
20
-0.342000
0
VERTEX
8
0
10
0.424000
20
-0.336000
0
VERTEX
8
0
10
0.407000
20
-0.332000
0
VERTEX
8
0
10
0.388000
20
-0.329000
0
VERTEX
8
0
10
0.368000
20
-0.328000
0
SEQEND
8
0
0
POLYLINE
8
0
66
1
40
0.008000
41
0.008000
0
VERTEX
8
0
10
0.268000
20
-0.378000
0
VERTEX
8
0
10
0.270000
20
-0.388000
0
VERTEX
8
0
10
0.276000
20
-0.398000
0
VERTEX
8
0
10
0.285000
20
-0.406000
0
VERTEX
8
0
10
0.297000
20
-0.414000
0
VERTEX
8
0
10
0.312000
20
-0.420000
0
VERTEX
8
0
10
0.329000
20
-0.424000
0
VERTEX
8
0
10
0.348000
20
-0.427000
0
VERTEX
8
0
10
0.368000
20
-0.428000
0
SEQEND
8
0
0
POLYLINE
8
0
66
1
40
0.008000
41
0.008000
0
VERTEX
8
0
10
0.468000
20
-0.378000
0
VERTEX
8
0
10
0.466000
20
-0.388000
0
VERTEX
8
0
10
0.460000
20
-0.398000
0
VERTEX
8
0
10
0.451000
20
-0.406000
0
VERTEX
8
0
10
0.439000
20
-0.414000
0
VERTEX
8
0
10
0.424000
20
-0.420000
0
VERTEX
8
0
10
0.407000
20
-0.424000
0
VERTEX
8
0
10
0.388000
20
-0.427000
0
VERTEX
8
0
10
0.368000
20
-0.428000
0
SEQEND
8
0
0
TEXT
8
12632256
10
0.318000
20
-0.318000
40
0.048000
41
1.041667
1
C9
0
POLYLINE
8
0
66
1
40
0.008000
41
0.008000
0
VERTEX
8
0
10
0.788000
20
-0.955000
0
VERTEX
8
0
10
0.838000
20
-0.955000
0
SEQEND
8
0
0
POLYLINE
8
0
66
1
40
0.008000
41
0.008000
0
VERTEX
8
0
10
0.838000
20
-0.980000
0
VERTEX
8
0
10
1.038000
20
-0.980000
0
VERTEX
8
0
10
1.038000
20
-0.930000
0
VERTEX
8
0
10
0.838000
20
-0.930000
0
VERTEX
8
0
10
0.838000
20
-0.980000
0
SEQEND
8
0
0
POLYLINE
8
0
66
1
40
0.008000
41
0.008000
0
VERTEX
8
0
10
1.038000
20
-0.955000
0
VERTEX
8
0
10
1.088000
20
-0.955000
0
SEQEND
8
0
0
TEXT
8
12632256
10
0.863000
20
-0.920000
40
0.048000
41
1.041667
1
R21
0
POLYLINE
8
0
66
1
40
0.008000
41
0.008000
0
VERTEX
8
0
10
0.900000
20
-1.361000
0
VERTEX
8
0
10
0.900000
20
-1.561000
0
SEQEND
8
0
0
POLYLINE
8
0
66
1
40
0.008000
41
0.008000
0
VERTEX
8
0
10
0.965000
20
-1.331000
0
VERTEX
8
0
10
0.950000
20
-1.333000
0
VERTEX
8
0
10
0.934000
20
-1.338000
0
VERTEX
8
0
10
0.918000
20
-1.348000
0
VERTEX
8
0
10
0.900000
20
-1.361000
0
SEQEND
8
0
0
POLYLINE
8
0
66
1
40
0.008000
41
0.008000
0
VERTEX
8
0
10
0.965000
20
-1.331000
0
VERTEX
8
0
10
0.991000
20
-1.332000
0
VERTEX
8
0
10
1.014000
20
-1.339000
0
VERTEX
8
0
10
1.036000
20
-1.350000
0
VERTEX
8
0
10
1.054000
20
-1.366000
0
VERTEX
8
0
10
1.069000
20
-1.385000
0
VERTEX
8
0
10
1.080000
20
-1.408000
0
VERTEX
8
0
10
1.084000
20
-1.420000
0
VERTEX
8
0
10
1.087000
20
-1.433000
0
VERTEX
8
0
10
1.089000
20
-1.447000
0
VERTEX
8
0
10
1.090000
20
-1.461000
0
SEQEND
8
0
0
POLYLINE
8
0
66
1
40
0.008000
41
0.008000
0
VERTEX
8
0
10
0.965000
20
-1.591000
0
VERTEX
8
0
10
0.950000
20
-1.589000
0
VERTEX
8
0
10
0.934000
20
-1.584000
0
VERTEX
8
0
10
0.918000
20
-1.574000
0
VERTEX
8
0
10
0.900000
20
-1.561000
0
SEQEND
8
0
0
POLYLINE
8
0
66
1
40
0.008000
41
0.008000
0
VERTEX
8
0
10
0.965000
20
-1.591000
0
VERTEX
8
0
10
0.991000
20
-1.590000
0
VERTEX
8
0
10
1.014000
20
-1.583000
0
VERTEX
8
0
10
1.036000
20
-1.572000
0
VERTEX
8
0
10
1.054000
20
-1.556000
0
VERTEX
8
0
10
1.069000
20
-1.537000
0
VERTEX
8
0
10
1.080000
20
-1.514000
0
VERTEX
8
0
10
1.084000
20
-1.502000
0
VERTEX
8
0
10
1.087000
20
-1.489000
0
VERTEX
8
0
10
1.089000
20
-1.475000
0
VERTEX
8
0
10
1.090000
20
-1.461000
0
SEQEND
8
0
0
TEXT
8
12632256
10
1.148000
20
-1.511000
40
0.048000
41
1.041667
50
90.000000
1
Q2
0
CIRCLE
8
12632256
10
0.606000
20
-1.457000
40
0.242000
0
CIRCLE
8
12632256
10
0.606000
20
-1.457000
40
0.050000
0
TEXT
8
12632256
10
0.441000
20
-1.353000
40
0.080000
41
1.125000
1
+
0
TEXT
8
12632256
10
0.719000
20
-1.232000
40
0.048000
41
1.041667
1
BUZ2
0
POLYLINE
8
0
66
1
40
0.008000
41
0.008000
0
VERTEX
8
0
10
0.454000
20
0.463000
0
VERTEX
8
0
10
0.754000
20
0.463000
0
VERTEX
8
0
10
0.754000
20
0.613000
0
VERTEX
8
0
10
0.454000
20
0.613000
0
VERTEX
8
0
10
0.454000
20
0.463000
0
SEQEND
8
0
0
POLYLINE
8
0
66
1
40
0.008000
41
0.008000
0
VERTEX
8
0
10
0.654000
20
0.313000
0
VERTEX
8
0
10
0.554000
20
0.313000
0
SEQEND
8
0
0
POLYLINE
8
0
66
1
40
0.008000
41
0.008000
0
VERTEX
8
0
10
0.510000
20
0.243000
0
VERTEX
8
0
10
0.702000
20
0.243000
0
VERTEX
8
0
10
0.702000
20
0.464000
0
VERTEX
8
0
10
0.510000
20
0.464000
0
VERTEX
8
0
10
0.510000
20
0.243000
0
SEQEND
8
0
0
TEXT
8
12632256
10
0.529000
20
0.623000
40
0.048000
41
1.041667
1
RV1
0
POLYLINE
8
0
66
1
40
0.008000
41
0.008000
0
VERTEX
8
0
10
-1.403000
20
-0.153000
0
VERTEX
8
0
10
-1.203000
20
-0.153000
0
SEQEND
8
0
0
POLYLINE
8
0
66
1
40
0.008000
41
0.008000
0
VERTEX
8
0
10
-1.433000
20
-0.088000
0
VERTEX
8
0
10
-1.431000
20
-0.103000
0
VERTEX
8
0
10
-1.426000
20
-0.119000
0
VERTEX
8
0
10
-1.416000
20
-0.135000
0
VERTEX
8
0
10
-1.403000
20
-0.153000
0
SEQEND
8
0
0
POLYLINE
8
0
66
1
40
0.008000
41
0.008000
0
VERTEX
8
0
10
-1.433000
20
-0.088000
0
VERTEX
8
0
10
-1.432000
20
-0.063000
0
VERTEX
8
0
10
-1.425000
20
-0.039000
0
VERTEX
8
0
10
-1.414000
20
-0.018000
0
VERTEX
8
0
10
-1.398000
20
0.000000
0
VERTEX
8
0
10
-1.379000
20
0.015000
0
VERTEX
8
0
10
-1.356000
20
0.026000
0
VERTEX
8
0
10
-1.331000
20
0.034000
0
VERTEX
8
0
10
-1.303000
20
0.036000
0
SEQEND
8
0
0
POLYLINE
8
0
66
1
40
0.008000
41
0.008000
0
VERTEX
8
0
10
-1.173000
20
-0.088000
0
VERTEX
8
0
10
-1.175000
20
-0.103000
0
VERTEX
8
0
10
-1.180000
20
-0.119000
0
VERTEX
8
0
10
-1.190000
20
-0.135000
0
VERTEX
8
0
10
-1.203000
20
-0.153000
0
SEQEND
8
0
0
POLYLINE
8
0
66
1
40
0.008000
41
0.008000
0
VERTEX
8
0
10
-1.173000
20
-0.088000
0
VERTEX
8
0
10
-1.174000
20
-0.063000
0
VERTEX
8
0
10
-1.181000
20
-0.039000
0
VERTEX
8
0
10
-1.192000
20
-0.018000
0
VERTEX
8
0
10
-1.208000
20
0.000000
0
VERTEX
8
0
10
-1.228000
20
0.015000
0
VERTEX
8
0
10
-1.250000
20
0.026000
0
VERTEX
8
0
10
-1.276000
20
0.034000
0
VERTEX
8
0
10
-1.303000
20
0.036000
0
SEQEND
8
0
0
TEXT
8
12632256
10
-1.353000
20
0.046000
40
0.048000
41
1.041667
1
Q1
0
POLYLINE
8
0
66
1
40
0.008000
41
0.008000
0
VERTEX
8
0
10
-1.351000
20
-0.588000
0
VERTEX
8
0
10
-1.351000
20
-0.538000
0
SEQEND
8
0
0
POLYLINE
8
0
66
1
40
0.008000
41
0.008000
0
VERTEX
8
0
10
-1.376000
20
-0.538000
0
VERTEX
8
0
10
-1.326000
20
-0.538000
0
VERTEX
8
0
10
-1.326000
20
-0.338000
0
VERTEX
8
0
10
-1.376000
20
-0.338000
0
VERTEX
8
0
10
-1.376000
20
-0.538000
0
SEQEND
8
0
0
POLYLINE
8
0
66
1
40
0.008000
41
0.008000
0
VERTEX
8
0
10
-1.351000
20
-0.338000
0
VERTEX
8
0
10
-1.351000
20
-0.288000
0
SEQEND
8
0
0
TEXT
8
12632256
10
-1.228000
20
-0.614000
40
0.048000
41
1.041667
50
90.000000
1
R9
0
POLYLINE
8
0
66
1
40
0.008000
41
0.008000
0
VERTEX
8
0
10
-0.072000
20
-0.530000
0
VERTEX
8
0
10
-0.110000
20
-0.530000
0
SEQEND
8
0
0
POLYLINE
8
0
66
1
40
0.008000
41
0.008000
0
VERTEX
8
0
10
-0.072000
20
-0.641000
0
VERTEX
8
0
10
-0.111000
20
-0.641000
0
SEQEND
8
0
0
POLYLINE
8
0
66
1
40
0.008000
41
0.008000
0
VERTEX
8
0
10
-0.152000
20
-0.515000
0
VERTEX
8
0
10
-0.152000
20
-0.495000
0
SEQEND
8
0
0
POLYLINE
8
0
66
1
40
0.008000
41
0.008000
0
VERTEX
8
0
10
-0.142000
20
-0.505000
0
VERTEX
8
0
10
-0.162000
20
-0.505000
0
SEQEND
8
0
0
TEXT
8
12632256
10
-0.016000
20
-0.485000
40
0.048000
41
1.041667
71
2
1
C20
0
POLYLINE
8
0
66
1
40
0.008000
41
0.008000
0
VERTEX
8
0
10
-0.166000
20
-0.215000
0
VERTEX
8
0
10
-0.204000
20
-0.215000
0
SEQEND
8
0
0
POLYLINE
8
0
66
1
40
0.008000
41
0.008000
0
VERTEX
8
0
10
-0.166000
20
-0.326000
0
VERTEX
8
0
10
-0.205000
20
-0.326000
0
SEQEND
8
0
0
POLYLINE
8
0
66
1
40
0.008000
41
0.008000
0
VERTEX
8
0
10
-0.246000
20
-0.200000
0
VERTEX
8
0
10
-0.246000
20
-0.180000
0
SEQEND
8
0
0
POLYLINE
8
0
66
1
40
0.008000
41
0.008000
0
VERTEX
8
0
10
-0.236000
20
-0.190000
0
VERTEX
8
0
10
-0.256000
20
-0.190000
0
SEQEND
8
0
0
TEXT
8
12632256
10
-0.272000
20
-0.382000
40
0.048000
41
1.041667
71
2
1
C21
0
POLYLINE
8
0
66
1
40
0.008000
41
0.008000
0
VERTEX
8
0
10
-0.885000
20
-1.923000
0
VERTEX
8
0
10
-0.847000
20
-1.923000
0
SEQEND
8
0
0
POLYLINE
8
0
66
1
40
0.008000
41
0.008000
0
VERTEX
8
0
10
-0.885000
20
-1.812000
0
VERTEX
8
0
10
-0.846000
20
-1.812000
0
SEQEND
8
0
0
POLYLINE
8
0
66
1
40
0.008000
41
0.008000
0
VERTEX
8
0
10
-0.805000
20
-1.938000
0
VERTEX
8
0
10
-0.805000
20
-1.958000
0
SEQEND
8
0
0
POLYLINE
8
0
66
1
40
0.008000
41
0.008000
0
VERTEX
8
0
10
-0.815000
20
-1.948000
0
VERTEX
8
0
10
-0.795000
20
-1.948000
0
SEQEND
8
0
0
TEXT
8
12632256
10
-0.587000
20
-1.886000
40
0.048000
41
1.041667
71
2
1
C16
0
POLYLINE
8
0
66
1
40
0.008000
41
0.008000
0
VERTEX
8
0
10
1.068000
20
-0.743000
0
VERTEX
8
0
10
1.318000
20
-0.743000
0
VERTEX
8
0
10
1.318000
20
-0.343000
0
VERTEX
8
0
10
1.068000
20
-0.343000
0
VERTEX
8
0
10
1.068000
20
-0.743000
0
SEQEND
8
0
0
POLYLINE
8
0
66
1
40
0.008000
41
0.008000
0
VERTEX
8
0
10
1.268000
20
-0.343000
0
VERTEX
8
0
10
1.268000
20
-0.743000
0
SEQEND
8
0
0
TEXT
8
12632256
10
1.262000
20
-0.937000
40
0.048000
41
1.041667
50
90.000000
1
J13
0
POLYLINE
8
0
66
1
40
0.008000
41
0.008000
0
VERTEX
8
0
10
-0.738000
20
-0.360000
0
VERTEX
8
0
10
-0.688000
20
-0.360000
0
SEQEND
8
0
0
POLYLINE
8
0
66
1
40
0.008000
41
0.008000
0
VERTEX
8
0
10
-0.688000
20
-0.385000
0
VERTEX
8
0
10
-0.488000
20
-0.385000
0
VERTEX
8
0
10
-0.488000
20
-0.335000
0
VERTEX
8
0
10
-0.688000
20
-0.335000
0
VERTEX
8
0
10
-0.688000
20
-0.385000
0
SEQEND
8
0
0
POLYLINE
8
0
66
1
40
0.008000
41
0.008000
0
VERTEX
8
0
10
-0.488000
20
-0.360000
0
VERTEX
8
0
10
-0.438000
20
-0.360000
0
SEQEND
8
0
0
TEXT
8
12632256
10
-0.638000
20
-0.325000
40
0.048000
41
1.041667
1
R8
0
TEXT
8
12632256
10
0.987000
20
1.655000
40
0.064000
41
1.093750
1
LUZ  N
0
TEXT
8
12632256
10
0.270000
20
1.647000
40
0.064000
41
1.093750
1
UV  N
0
TEXT
8
12632256
10
-0.658000
20
1.651000
40
0.064000
41
1.093750
1
MOTOR  N
0
TEXT
8
12632256
10
-1.426000
20
1.647000
40
0.064000
41
1.093750
1
TOMA  N
0
TEXT
8
12632256
10
-1.430000
20
1.040000
40
0.064000
41
1.093750
50
90.000000
1
L  N
0
TEXT
8
12632256
10
0.302000
20
0.257000
40
0.064000
41
1.093750
1
1
0
TEXT
8
12632256
10
-1.780000
20
0.245000
40
0.064000
41
1.093750
1
20
0
TEXT
8
12632256
10
-0.737000
20
0.663000
40
0.064000
41
1.093750
1
GLCD
0
TEXT
8
12632256
10
-1.451000
20
-0.250000
40
0.048000
41
1.041667
50
-90.000000
1
VIDRIO DN
0
TEXT
8
12632256
10
-1.471000
20
0.225000
40
0.048000
41
1.041667
50
-90.000000
1
VIDRIO UP
0
TEXT
8
12632256
10
-1.526000
20
-0.333000
40
0.048000
41
1.041667
50
-90.000000
1
UP GND
0
TEXT
8
12632256
10
-1.530000
20
0.107000
40
0.048000
41
1.041667
50
-90.000000
1
DN GND
0
TEXT
8
12632256
10
-1.508000
20
-0.884000
40
0.064000
41
1.093750
50
-90.000000
1
VIN
0
TEXT
8
12632256
10
-1.355000
20
-1.197000
40
0.048000
41
1.041667
1
RESET
0
TEXT
8
12632256
10
0.156000
20
-0.844000
40
0.064000
41
1.093750
1
BOTONES
0
TEXT
8
12632256
10
-0.172000
20
-1.189000
40
0.048000
41
1.041667
1
U D R L  + + + +
0
POLYLINE
8
0
66
1
40
0.000000
41
0.000000
0
VERTEX
8
0
10
1.487000
20
1.906000
0
VERTEX
8
0
10
1.487000
20
0.427000
0
VERTEX
8
0
10
1.821000
20
0.427000
0
VERTEX
8
0
10
1.821000
20
1.906000
0
VERTEX
8
0
10
1.487000
20
1.906000
0
SEQEND
8
0
0
TEXT
8
12632256
10
0.786000
20
-1.764000
40
0.048000
41
1.041667
1
V12 GND VCC VF
0
TEXT
8
12632256
10
-0.073000
20
-1.761000
40
0.048000
41
1.041667
1
V12 GND VCC VF
0
TEXT
8
12632256
10
1.385000
20
-0.878000
40
0.048000
41
1.041667
1
PRESION
0
TEXT
8
12632256
10
1.369000
20
-1.047000
40
0.048000
41
1.041667
1
DOWN FLOW
0
TEXT
8
12632256
10
1.420000
20
0.066000
40
0.048000
41
1.041667
1
PRESION
0
TEXT
8
12632256
10
1.432000
20
-0.051000
40
0.048000
41
1.041667
1
INFLOW
0
TEXT
8
12632256
10
0.942000
20
-0.262000
40
0.048000
41
1.041667
50
-90.000000
1
OUT GND VCC
0
TEXT
8
12632256
10
1.333000
20
-0.544000
40
0.048000
41
1.041667
1
INFRARROJO
0
POLYLINE
8
0
66
1
40
0.023000
41
0.023000
0
VERTEX
8
0
10
-1.949000
20
1.411000
0
VERTEX
8
0
10
-1.449000
20
1.411000
0
VERTEX
8
0
10
-1.449000
20
1.887000
0
VERTEX
8
0
10
-1.949000
20
1.887000
0
VERTEX
8
0
10
-1.949000
20
1.411000
0
SEQEND
8
0
0
TEXT
8
12632256
10
-1.914000
20
1.771000
40
0.048000
41
1.041667
1
BIOSAFETY
0
TEXT
8
12632256
10
-1.859000
20
1.696000
40
0.048000
41
1.041667
1
CABINET
0
TEXT
8
12632256
10
-1.855000
20
1.605000
40
0.048000
41
1.041667
1
CONTROL
0
TEXT
8
12632256
10
-1.796000
20
1.491000
40
0.048000
41
1.041667
1
2017
0
TEXT
8
12632256
10
-0.091000
20
0.684000
40
0.048000
41
1.041667
1
DIELECCBA2CR-001
0
TEXT
8
12632256
10
-1.886000
20
0.793000
40
0.064000
41
0.781250
1
JUDAPIES
0
TEXT
8
12632256
10
0.871000
20
1.745000
40
0.048000
41
1.041667
50
-90.000000
1
Bogota - Colombia
0
TEXT
8
12632256
10
0.788000
20
1.769000
40
0.048000
41
1.041667
50
-90.000000
1
www.jpinglobal.com
0
TEXT
8
12632256
10
0.160000
20
-2.216000
40
0.048000
41
1.041667
1
INFLOW
0
TEXT
8
12632256
10
0.971000
20
-2.216000
40
0.048000
41
1.041667
1
DOWNFLOW
0
ENDSEC
0
EOF

